<?xml version="1.0" encoding="UTF-8"?>
<svg width="24px" height="25px" viewBox="0 0 24 25" version="1.1" xmlns="http://www.w3.org/2000/svg" xmlns:xlink="http://www.w3.org/1999/xlink">
    <!-- Generator: Sketch 52.4 (67378) - http://www.bohemiancoding.com/sketch -->
    <title>Group 4</title>
    <desc>Created with Sketch.</desc>
    <g id="landing" stroke="none" stroke-width="1" fill="none" fill-rule="evenodd">
        <g id="survays" transform="translate(-561.000000, -1260.000000)">
            <g id="Group-4" transform="translate(561.000000, 1260.300000)">
                <circle id="Oval" fill="#32C787" cx="12" cy="12" r="12"></circle>
                <path d="M10.7649849,15.9099384 L10.6539966,15.8000377 C10.568341,15.7152214 10.4825321,15.6305601 10.3965703,15.5460542 L7.19613733,12.3998232 C6.93870649,12.1467522 6.93517217,11.7329086 7.18824321,11.4754778 C7.19051522,11.4731666 7.19280439,11.4708724 7.19511053,11.4685953 L7.19511053,11.4685953 C7.45698867,11.2100142 7.87792409,11.2094712 8.14046844,11.4673759 L10.9188648,14.1966724 L15.824194,8.24082425 C16.0567084,7.95851486 16.4740556,7.91814805 16.756365,8.15066246 C16.7568633,8.15107285 16.7573609,8.15148396 16.757858,8.1518958 L16.757858,8.1518958 C17.0405353,8.38610394 17.0803792,8.80489344 16.8469391,9.08820534 L12.2899584,14.6187338 C12.0077424,14.9612421 11.7229288,15.3016018 11.4355425,15.6397836 L11.2226901,15.8902576 C11.1110028,16.0216855 10.9139191,16.0376885 10.7824911,15.9260012 C10.7764541,15.9208709 10.7706144,15.9155128 10.7649849,15.9099384 Z" id="Path" fill="#FFFFFF"></path>
            </g>
        </g>
    </g>
</svg>