<?xml version="1.0" encoding="UTF-8"?>
<svg width="457px" height="320px" viewBox="0 0 457 320" version="1.1" xmlns="http://www.w3.org/2000/svg" xmlns:xlink="http://www.w3.org/1999/xlink">
    <!-- Generator: Sketch 55 (78076) - https://sketchapp.com -->
    <title>Asset 4</title>
    <desc>Created with Sketch.</desc>
    <defs>
        <linearGradient x1="0%" y1="50%" x2="99.9914163%" y2="50%" id="linearGradient-1">
            <stop stop-color="#C7EFE8" stop-opacity="0.02" offset="0%"></stop>
            <stop stop-color="#BAECE2" stop-opacity="0.09" offset="3%"></stop>
            <stop stop-color="#89E0CD" stop-opacity="0.33" offset="15%"></stop>
            <stop stop-color="#5FD6BA" stop-opacity="0.53" offset="28%"></stop>
            <stop stop-color="#3CCEAB" stop-opacity="0.7" offset="41%"></stop>
            <stop stop-color="#22C7A0" stop-opacity="0.83" offset="54%"></stop>
            <stop stop-color="#0FC397" stop-opacity="0.93" offset="68%"></stop>
            <stop stop-color="#04C093" stop-opacity="0.98" offset="83%"></stop>
            <stop stop-color="#00BF91" offset="100%"></stop>
        </linearGradient>
        <linearGradient x1="0%" y1="49.9896801%" x2="100.048069%" y2="49.9896801%" id="linearGradient-2">
            <stop stop-color="#7CB851" offset="0%"></stop>
            <stop stop-color="#5FB397" offset="100%"></stop>
        </linearGradient>
        <linearGradient x1="756.854098%" y1="-1137.03569%" x2="856.854098%" y2="-1137.03569%" id="linearGradient-3">
            <stop stop-color="#7CB851" offset="0%"></stop>
            <stop stop-color="#5FB397" offset="100%"></stop>
        </linearGradient>
        <linearGradient x1="-2.28746152e-13%" y1="49.9898167%" x2="100%" y2="49.9898167%" id="linearGradient-4">
            <stop stop-color="#36895E" offset="0%"></stop>
            <stop stop-color="#5FB397" offset="100%"></stop>
        </linearGradient>
        <linearGradient x1="958.994053%" y1="-617.466759%" x2="1058.98822%" y2="-617.466759%" id="linearGradient-5">
            <stop stop-color="#7CB851" offset="0%"></stop>
            <stop stop-color="#5FB397" offset="100%"></stop>
        </linearGradient>
        <linearGradient x1="1639.21465%" y1="-1849.02243%" x2="1739.24118%" y2="-1849.02243%" id="linearGradient-6">
            <stop stop-color="#7CB851" offset="0%"></stop>
            <stop stop-color="#5FB397" offset="100%"></stop>
        </linearGradient>
        <linearGradient x1="1677.03583%" y1="-1870.96915%" x2="1777.03583%" y2="-1870.96915%" id="linearGradient-7">
            <stop stop-color="#36895E" offset="0%"></stop>
            <stop stop-color="#5FB397" offset="100%"></stop>
        </linearGradient>
        <linearGradient x1="1281.51735%" y1="-619.318547%" x2="1381.51755%" y2="-619.318547%" id="linearGradient-8">
            <stop stop-color="#36895E" offset="0%"></stop>
            <stop stop-color="#5FB397" offset="100%"></stop>
        </linearGradient>
    </defs>
    <g id="Page-1" stroke="none" stroke-width="1" fill="none" fill-rule="evenodd">
        <g id="locked" transform="translate(-492.000000, -268.000000)">
            <g id="Asset-4" transform="translate(492.000000, 268.000000)">
                <g id="Group" opacity="0.5" transform="translate(31.996960, 2.424012)" fill="#C7EFE8" fill-rule="nonzero">
                    <path d="M407.549164,113.443769 C413.934012,123.963982 423.213131,133.892736 424.032447,145.755851 C425.302629,164.832827 404.81003,179.187827 396.44234,196.829787 C386.159681,218.510152 394.784316,244.054392 385.679726,266.122599 C379.081565,282.121079 362.894012,294.895623 343.889757,299.1231 C329.636565,302.293708 314.651322,300.858693 299.937568,300.98959 C258.166991,301.35804 216.55155,314.462249 175.343343,308.513723 C154.981641,305.575821 135.764073,298.080775 115.324802,295.676155 C90.8277356,292.820669 62.2728723,296.296702 44.7569605,281.18541 C20.2841337,260.077112 38.4545289,221.268678 20.0902128,195.947447 C14.1756231,187.79307 4.64925532,181.403374 1.45440729,172.192128 C-2.27857143,161.41497 3.76691489,149.934848 11.2765046,140.747842 C18.7860942,131.560836 28.0700608,123.101033 32.1230091,112.415988 C35.8172036,102.719939 33.5774164,92.1706383 29.0202736,82.741231 C22.0633587,68.2941185 41.4312158,35.1724164 79.8421125,37.6546049 C97.4695289,38.7841945 105.396049,20.2986778 124.710578,15.1694681 C146.832112,9.29851064 174.596748,14.0204863 190.895805,18.931535 C207.451809,23.925 227.925015,26.5477812 237.436839,13.7926292 C250.836778,-4.21293313 290.765106,-7.05387538 308.702796,22.2087994 C315.257325,32.8744529 321.089498,41.2033587 335.037264,40.3888906 C410.62766,35.9723404 398.061581,97.8040426 407.549164,113.443769 Z M201.537219,14.6458815 C201.537219,17.0989818 201.537219,21.3070669 213.453663,20.6186474 C217.113921,20.4053343 220.090608,18.6309574 220.090608,16.1778571 C220.090608,13.7247568 217.118769,11.7370669 213.453663,11.7370669 C209.788556,11.7370669 201.537219,10.7286778 201.537219,14.6458815 Z M406.550471,198.434483 C405.580866,198.783541 404.64035,199.224711 404.102219,199.981003 C403.728094,200.581372 403.512878,201.267062 403.476824,201.973541 C403.303205,203.41179 403.214171,204.85899 403.210182,206.307675 C403.210182,207.892979 403.399255,209.647964 404.742158,210.729073 C406.550471,212.18348 409.420502,211.66959 411.791185,211.073283 C413.124392,210.733921 414.549711,210.346079 415.407812,209.395866 C415.96887,208.687883 416.324427,207.839242 416.435593,206.942766 C417.012508,204.033951 418.767492,199.670729 416.818587,198.167842 C414.869681,196.664954 409.93924,197.183693 406.550471,198.434483 Z M273.035881,310.423845 C272.547356,310.806993 272.131868,311.275033 271.809331,311.805532 C271.019103,313.259939 271.833571,315.199149 273.535228,315.829392 C274.424311,316.093929 275.354177,316.194145 276.27921,316.125122 C284.22997,316.033009 292.762492,315.766368 299.127948,311.626155 C299.903632,311.141353 300.703556,310.414149 300.582356,309.585137 C300.417523,308.576748 299.040684,308.130729 297.891702,307.941657 C289.911854,306.545426 279.425578,304.98921 273.035881,310.418997 L273.035881,310.423845 Z M122.107188,299.273389 C115.189058,298.424985 104.193739,297.227523 104.198587,302.303404 C104.198587,304.218374 113.95766,306.060623 115.567204,306.414529 C120.560669,307.505334 125.239012,309.119726 130.111277,310.753511 C139.162538,313.788374 146.415182,309.701489 139.244954,305.120106 C133.344909,301.35804 127.682416,299.966657 122.107188,299.287933 L122.107188,299.273389 Z" id="Shape"></path>
                </g>
                <path d="M114.490942,148.805258 C103.471383,143.511216 98.1870365,129.413161 89.1357751,126.37345 C77.9125988,122.49503 74.771079,135.027173 56.629772,131.929286 C41.4021277,129.330745 36.7771125,112.207523 11.3249848,117.501565 C3.5681459,119.120805 -1.60954407,125.689878 1.30896657,133.567918 C3.49542553,141.412021 14.2919757,146.37155 20.7010638,150.380866 C26.3974924,153.595106 31.4442857,155.321003 34.8233587,161.303465 L34.9251672,161.502234 C37.1940426,166.350258 36.287462,170.71348 41.5960486,174.257386 C54.026383,183.35228 69.5109726,168.924559 83.6526596,169.331793 C93.6250456,169.632371 93.3487082,179.997447 105.337872,182.988678 C117.215532,185.955669 113.31772,175.323951 138.231717,184.981216 C138.662359,185.148401 139.141882,185.137007 139.564097,184.949558 C139.986312,184.762109 140.316377,184.414073 140.481201,183.982523 L140.481201,183.982523 C140.721777,183.355637 140.580282,182.646274 140.117599,182.159666 C122.698647,163.911702 130.707584,156.591185 114.490942,148.805258 Z" id="Path" fill="#5F82D3" fill-rule="nonzero"></path>
                <path d="M114.490942,148.805258 C103.471383,143.511216 98.1870365,129.413161 89.1357751,126.37345 C77.9125988,122.49503 74.771079,135.027173 56.629772,131.929286 C41.4021277,129.330745 36.7771125,112.207523 11.3249848,117.501565 C3.5681459,119.120805 -1.60954407,125.689878 1.30896657,133.567918 C3.49542553,141.412021 14.2919757,146.37155 20.7010638,150.380866 C26.3974924,153.595106 31.4442857,155.321003 34.8233587,161.303465 L34.9251672,161.502234 C37.1940426,166.350258 36.287462,170.71348 41.5960486,174.257386 C54.026383,183.35228 69.5109726,168.924559 83.6526596,169.331793 C93.6250456,169.632371 93.3487082,179.997447 105.337872,182.988678 C117.215532,185.955669 113.31772,175.323951 138.231717,184.981216 C138.662359,185.148401 139.141882,185.137007 139.564097,184.949558 C139.986312,184.762109 140.316377,184.414073 140.481201,183.982523 L140.481201,183.982523 C140.721777,183.355637 140.580282,182.646274 140.117599,182.159666 C122.698647,163.911702 130.707584,156.591185 114.490942,148.805258 Z" id="Path" fill="#61AA9D" fill-rule="nonzero"></path>
                <g id="Group" opacity="0.5" style="mix-blend-mode: screen;" transform="translate(13.574468, 127.018237)" fill="#6D9FFB" fill-rule="nonzero">
                    <path d="M115.014529,45.5714286 C107.189818,41.6930091 102.288465,34.091307 95.2491337,29.1511702 C91.8555167,26.7659422 87.918921,24.9382371 83.7108359,24.8752128 C79.2070213,24.8024924 74.6595745,27.0665198 70.2236322,25.4860638 C66.7524468,24.2546657 64.202386,21.3700912 60.9542097,19.7217629 C59.409897,18.9054903 57.6828751,18.4966784 55.9365046,18.533997 C53.5900608,18.5921733 51.3308815,19.3727052 48.9989818,19.5617781 C40.7234043,20.2453495 34.2561398,13.3029787 28.118541,8.8331003 C20.1594173,3.03817774 10.5376502,-0.023370945 0.693267477,0.106656535 C0.126048632,0.106656535 0.378145897,1.60954407 1.01808511,1.59984802 C10.0248479,1.48881191 18.8553347,4.09943228 26.3538602,9.09004559 C32.6078116,13.2835866 38.2993921,19.8768997 46.1144073,20.9774012 C48.0568751,21.2002772 50.0228809,21.0987003 51.9320365,20.6768237 C54.2009119,20.2405015 56.4988754,19.7072188 58.7871429,20.337462 C62.2825684,21.2828267 64.8762614,24.0946809 67.9353647,25.8739058 C69.509973,26.8415947 71.2939999,27.4168727 73.1372948,27.5513222 C75.3867781,27.6725228 77.5974772,27.1731763 79.8033283,26.7901824 C84.1745353,25.9490199 88.7024764,26.7151544 92.5536322,28.9475532 C100.989195,33.693769 106.1281,42.6432219 114.854544,46.9676596 C115.557508,47.3167173 115.528419,45.8283739 115.019377,45.5811246 L115.014529,45.5714286 Z" id="Path"></path>
                </g>
                <path d="M102.957492,108.823602 C103.873769,108.38728 108.333951,101.003739 110.147112,98.3906535 C110.700449,97.6832457 111.117959,96.8794579 111.378511,96.0199696 C111.632449,95.1429901 111.403815,94.197107 110.777356,93.5329331 C109.95804,92.7863374 108.838146,92.1560942 107.015289,92.912386 C103.825289,94.2310486 103.136869,95.7387842 102.254529,97.9834195 C99.297234,105.405745 102.957492,108.823602 102.957492,108.823602 Z" id="Path" fill="#61AA9D" fill-rule="nonzero"></path>
                <path d="M133.606702,116.401064 C136.913055,116.50772 140.393936,116.536809 143.302751,114.898176 C144.417796,114.263085 145.484362,113.201368 145.416489,111.921489 C145.358313,110.825836 144.446884,109.919255 143.409407,109.555653 C142.347892,109.259142 141.23084,109.22091 140.151535,109.444149 C136.06465,110.064696 131.056641,112.711717 127.803617,115.261778 C127.789073,115.266626 131.633556,116.352584 133.606702,116.401064 Z" id="Path" fill="#61AA9D" fill-rule="nonzero"></path>
                <path d="M130.382766,67.8723404 C128.812006,67.596003 126.989149,67.1112006 126.402538,65.6374012 C125.815927,64.1636018 126.88734,62.398921 128.341748,61.7880699 C129.796155,61.1772188 131.517204,61.414772 133.029787,61.9335106 C139.419483,64.1296657 140.786626,69.0698024 140.786626,69.0698024 C140.786626,69.0698024 132.128055,68.19231 130.382766,67.8723404 Z" id="Path" fill="#61AA9D" fill-rule="nonzero"></path>
                <path d="M128.918663,53.7839818 C127.633936,53.7839818 126.271641,53.6627812 125.21962,52.9210334 C124.680891,52.58604 124.324017,52.0239638 124.250015,51.3939058 C124.196687,50.3467325 124.429392,49.2898632 126.906733,48.7614286 C134.74114,47.0888602 138.382006,51.43269 138.382006,51.43269 C138.382006,51.43269 131.197234,53.8130699 128.918663,53.7839818 Z" id="Path" fill="#61AA9D" fill-rule="nonzero"></path>
                <path d="M154.816809,56.0577052 C157.728648,54.5593188 159.933511,51.9747869 160.954407,48.8632371 C161.355871,47.7294434 161.485398,46.5172004 161.332553,45.3241793 C161.163132,44.1116739 160.358985,43.0819955 159.223663,42.6238298 C157.837128,42.1390274 156.271216,42.9680395 155.4519,44.1800456 C154.632584,45.3920517 154.399878,46.8997872 154.317462,48.3541945 C154.210805,50.2982523 154.816809,56.0577052 154.816809,56.0577052 Z" id="Path" fill="#61AA9D" fill-rule="nonzero"></path>
                <path d="M172.453921,137.620866 C166.791429,155.325851 149.391869,165.482462 133.669726,162.113085 C118.408146,158.850365 109.604134,143.903906 108.46,131.570532 C107.296474,119.062629 114.025532,109.337492 115.664164,106.966809 C123.348283,95.8599848 129.830091,97.0138146 141.809559,83.6284195 C146.701216,78.164696 151.020805,71.2368693 150.00272,63.9745289 C149.794255,62.4716413 148.514377,56.6443161 142.977933,53.2652432 C137.223328,49.7504255 131.192386,51.5587386 130.247021,51.8593161" id="Path" stroke="#396357" stroke-width="2.01" stroke-linecap="round" stroke-linejoin="round"></path>
                <path d="M156.979027,47.2343009 C157.46383,53.9730547 151.432888,60.6827204 150.104529,67.2420973" id="Path" stroke="#396357" stroke-width="2.01" stroke-linecap="round" stroke-linejoin="round"></path>
                <path d="M132.724362,65.186535 C134.847796,66.1561398 137.160304,66.7088146 139.162538,67.9014286 C143.399711,70.4272492 146.061277,76.2594225 143.52576,81.6019453" id="Path" stroke="#396357" stroke-width="2.01" stroke-linecap="round" stroke-linejoin="round"></path>
                <path d="M112.92503,113.841307 C121.166672,116.09079 130.683343,115.925957 138.69228,112.992903" id="Path" stroke="#396357" stroke-width="2.01" stroke-linecap="round" stroke-linejoin="round"></path>
                <path d="M108.183663,128.259331 C101.823055,120.958207 100.785578,109.507173 105.725714,101.178267" id="Path" stroke="#396357" stroke-width="2.01" stroke-linecap="round" stroke-linejoin="round"></path>
                <path d="M242.982979,139.20617 L312.891489,139.20617 C338.075959,139.20617 358.492006,159.622217 358.492006,184.806687 L358.492006,259.538982 C358.492006,272.926431 347.639334,283.779103 334.251884,283.779103 L221.627432,283.779103 C208.239982,283.779103 197.38731,272.926431 197.38731,259.538982 L197.38731,184.801839 C197.389987,159.621155 217.802295,139.208847 242.982979,139.20617 Z" id="Path" fill="#1B1464" fill-rule="nonzero"></path>
                <path d="M228.434058,178.732112 L228.434058,92.7814894 C228.434058,66.1561398 249.280562,43.9037082 275.88652,42.8468389 L277.059742,42.8129027 C277.462128,42.8129027 277.864514,42.8129027 278.2669,42.8129027 C305.575821,42.9922796 327.44041,65.598617 327.44041,92.8929939 L327.44041,178.732112 L313.967751,178.732112 L313.967751,96.1314742 C314.151976,76.0218693 297.658997,59.6549392 278.232964,59.810076 C259.650486,59.9555167 243.836231,75.168617 243.079939,94.3716413 L243.079939,178.727264 L228.434058,178.732112 Z" id="Path" fill="#1B1464" fill-rule="nonzero"></path>
                <path d="M246.255395,145.363161 L309.623921,145.363161 C333.83914,145.363161 353.469453,164.993474 353.469453,189.208693 L353.469453,255.461793 C353.469461,267.005702 344.118369,276.367642 332.574468,276.381018 L223.32424,276.381018 C211.770871,276.381018 202.405015,267.015162 202.405015,255.461793 L202.405015,189.208693 C202.405015,177.579295 207.025107,166.426278 215.248788,158.203506 C223.472469,149.980734 234.625997,145.361875 246.255395,145.363161 L246.255395,145.363161 Z" id="Path" fill="#2B398E" fill-rule="nonzero"></path>
                <path d="M290.881459,197.658799 C290.881765,191.125931 286.014051,185.616749 279.530883,184.812445 C273.047715,184.00814 266.981344,188.160834 265.38527,194.495731 C263.789196,200.830628 267.163733,207.361955 273.254043,209.725532 L273.254043,234.673465 C273.259366,237.258499 275.352207,239.353507 277.937234,239.361505 L277.937234,239.361505 C280.523052,239.353519 282.617288,237.259283 282.625274,234.673465 L282.625274,209.725532 C287.601183,207.789206 290.879251,202.998184 290.881459,197.658799 L290.881459,197.658799 Z" id="Path" fill="#1B1464" fill-rule="nonzero"></path>
                <g id="Group" opacity="0.2" transform="translate(264.702128, 184.709726)" fill="#010021" fill-rule="nonzero">
                    <path d="M26.1793313,12.9490729 C26.1796375,6.41620426 21.3119234,0.907022813 14.8287554,0.102718229 C8.34558735,-0.701586355 2.27921681,3.45110789 0.683142517,9.78600491 C-0.912931772,16.1209019 2.46160488,22.6522283 8.55191489,25.0158055 L8.55191489,49.9637386 C8.557238,52.5487722 10.6500797,54.6437804 13.2351064,54.6517781 L13.2351064,54.6517781 C15.8209244,54.643793 17.9151608,52.5495566 17.9231459,49.9637386 L17.9231459,25.0158055 C22.8990552,23.0794796 26.177123,18.2884574 26.1793313,12.9490729 L26.1793313,12.9490729 Z" id="Path"></path>
                </g>
                <path d="M229.151565,157.289301 C230.382964,159.863602 231.148951,164.221976 228.850988,166.655684 C227.881383,167.693161 226.674225,168.027675 225.578571,168.294316 C220.342705,169.55965 211.71807,171.649149 210.113374,168.590046 C208.838343,166.166033 212.702219,161.754331 214.568708,159.635745 C216.417656,157.611138 218.64202,155.96468 221.118389,154.78772 C224.216277,153.294529 225.481611,153.624195 225.879149,153.745395 C227.71655,154.293222 228.584347,156.106383 229.151565,157.289301 Z" id="Path" fill="#FFFFFF" fill-rule="nonzero" opacity="0.2"></path>
                <path d="M273.685517,269.753769 C275.067204,272.972857 279.532234,272.662584 314.345897,272.972857 C333.558617,273.132842 339.909529,273.287979 344.224271,268.284818 C348.800805,262.951991 348.694149,254.618237 348.616581,248.660015 C348.529316,241.60614 348.466292,236.94234 345.707766,233.718404 C337.616413,224.332629 311.07348,232.472462 293.567264,244.86886 C286.169179,250.07079 270.73307,262.879271 273.685517,269.753769 Z" id="Path" fill="#FFFFFF" fill-rule="nonzero" opacity="0.2"></path>
                <ellipse id="Oval" fill="url(#linearGradient-1)" fill-rule="nonzero" opacity="0.5" cx="365.924027" cy="282.761018" rx="28.2397416" ry="5.87580547"></ellipse>
                <path d="M363.887857,257.376763 C365.536185,253.881337 367.281474,250.415 369.59883,247.317112 C375.483115,239.535829 384.418292,234.647336 394.144377,233.888085 C388.157067,242.740578 380.846246,250.211383 371.765897,255.873875 C369.32734,257.401003 366.75304,257.013161 363.887857,257.376763 Z" id="Path" fill="url(#linearGradient-2)" fill-rule="nonzero"></path>
                <path d="M368.474088,257.003465 C370.45693,251.869407 373.026383,246.909878 376.953283,243.094483 C381.583146,238.580973 387.662568,236.040608 393.824407,233.922021 C384.211849,234.756047 375.403255,239.625437 369.584286,247.32196 C367.276626,250.419848 365.521641,253.900729 363.873313,257.381611 C365.497401,257.173146 367.019681,257.207082 368.474088,257.003465 Z" id="Path" fill="#000000" fill-rule="nonzero" opacity="0.1"></path>
                <path d="M363.887857,258.676033 C364.896246,248.640623 367.931109,238.867006 372.231307,229.738176 C373.827426,226.165173 375.798712,222.771896 378.11196,219.615502 C384.272533,211.625362 393.430243,206.499216 403.46228,205.425334 C399.162082,215.034119 392.670578,223.634514 384.957371,230.804742 C382.533359,233.078465 379.915426,235.197052 377.54959,237.55804 C371.518647,243.559894 366.316717,250.531353 363.887857,258.676033 Z" id="Path" fill="url(#linearGradient-3)" fill-rule="nonzero"></path>
                <path d="M387.19231,220.400881 C387.900122,217.220578 387.987386,213.943313 388.05041,210.704833 C384.214973,213.036643 380.843851,216.057668 378.107112,219.615502 C375.791256,222.768465 373.819792,226.160422 372.226459,229.733328 C368.032918,238.673085 365.022295,248.233389 363.955729,258.055486 L363.999362,258.312432 C366.476702,250.322888 371.605912,243.458085 377.539894,237.553191 C377.850167,237.247766 378.160441,236.94234 378.475562,236.641763 C382.349134,231.648298 385.834863,226.470608 387.19231,220.400881 Z" id="Path" fill="url(#linearGradient-4)" fill-rule="nonzero" opacity="0.1"></path>
                <path d="M378.974909,173.598055 C369.395213,180.424073 362.283161,190.314043 358.157492,201.352994 C358.705319,202.201398 359.257994,203.049802 359.830061,203.883663 C358.997209,203.777127 358.158422,203.723691 357.318784,203.723678 C356.005745,207.690246 355.073939,211.772985 354.536018,215.916459 C354.162897,218.831496 353.97345,221.767111 353.968799,224.705927 C355.021151,225.335456 356.014218,226.059162 356.93579,226.868146 C355.933706,227.349667 354.970856,227.908899 354.056064,228.540714 C354.676611,241.024377 358.419286,253.372295 364.425988,264.387006 C363.626064,257.963374 366.399134,251.782143 369.167356,245.964514 C371.935578,240.146884 375.532812,234.688009 378.378602,228.865532 C386.731748,211.606565 387.972842,190.527356 378.974909,173.598055 Z" id="Path" fill="url(#linearGradient-5)" fill-rule="nonzero"></path>
                <path d="M359.485851,232.588815 C358.506084,228.676883 356.640006,225.042592 354.031824,221.966793 C353.99304,222.88307 353.968799,223.799347 353.963951,224.720471 C355.015126,225.349947 356.008057,226.071932 356.930942,226.877842 C355.928758,227.361026 354.965911,227.921876 354.051216,228.555258 C354.46348,236.167124 355.947036,243.68283 358.45807,250.88041 C359.034985,251.607614 359.621596,252.334818 360.213055,253.057173 C360.78997,246.221459 361.177812,239.22576 359.485851,232.588815 Z" id="Path" fill="#000000" fill-rule="nonzero" opacity="0.1"></path>
                <path d="M360.208207,253.066869 C359.723404,246.240851 359.088313,239.264544 356.383116,232.962112 C353.677918,226.659681 348.572948,221.006884 341.936003,219.344012 C343.186793,226.034286 346.076216,232.433678 348.999574,238.590669 C349.949057,240.694321 351.055933,242.723324 352.310775,244.660395 C354.511778,247.898875 357.299392,250.419848 360.208207,253.066869 Z" id="Path" fill="url(#linearGradient-6)" fill-rule="nonzero"></path>
                <path d="M359.170729,249.18845 C358.598095,247.568464 357.822713,246.027474 356.86307,244.602219 C356.422374,243.970437 356.051743,243.292571 355.75772,242.580593 C355.045061,240.597751 355.680152,238.164043 354.439058,236.462386 C353.372492,235.007979 351.234514,234.581353 350.313389,233.025137 C349.498921,231.64345 349.930395,229.888465 349.644362,228.317705 C349.212888,225.980957 347.278526,224.269605 345.455669,222.752173 C344.210398,221.800767 343.111163,220.672131 342.192948,219.402188 L341.940851,219.334316 C343.191641,226.02459 346.081064,232.423982 349.004422,238.580973 C349.953905,240.684625 351.060781,242.713628 352.315623,244.650699 C354.390578,247.734043 357.047295,250.158055 359.800973,252.649939 C359.746688,251.473111 359.534715,250.30889 359.170729,249.18845 Z" id="Path" fill="url(#linearGradient-7)" fill-rule="nonzero" opacity="0.2"></path>
                <path d="M378.974909,173.598055 L378.611307,173.859848 C376.248703,180.944428 373.947508,188.037087 371.70772,195.137827 C367.945653,207.044574 364.319331,219.057979 362.695243,231.439833 C361.269924,242.313951 361.449301,253.55652 364.387204,264.091277 C363.713328,257.788845 366.428222,251.714271 369.15766,245.94997 C371.930729,240.098404 375.523116,234.673465 378.368906,228.850988 C386.731748,211.606565 387.972842,190.527356 378.974909,173.598055 Z" id="Path" fill="url(#linearGradient-8)" fill-rule="nonzero"></path>
                <path d="M349.004422,250.579833 L382.838784,250.579833 L382.838784,281.878678 C382.838784,282.549853 382.572161,283.193538 382.097568,283.668131 C381.622976,284.142723 380.979291,284.409347 380.308116,284.409347 L351.530243,284.409347 C350.132593,284.409347 348.999574,283.276328 348.999574,281.878678 L348.999574,250.579833 L349.004422,250.579833 Z" id="Path" fill="#FFFFFF" fill-rule="nonzero"></path>
                <path d="M370.87386,250.579833 L370.87386,274.398176 C370.87386,279.92987 366.389536,284.414195 360.857842,284.414199 L372.81307,284.414195 C375.471163,284.416768 378.021268,283.362648 379.901733,281.484001 C381.782199,279.605354 382.838785,277.05627 382.838784,274.398176 L382.838784,250.579833 L370.87386,250.579833 Z" id="Path" fill="#000000" fill-rule="nonzero" opacity="0.05"></path>
                <path d="M184.709726,216.003723 C184.709726,216.003723 139.211018,206.050729 104.232523,209.798252 C103.127173,209.914605 104.474924,203.011018 104.474924,203.011018 C104.474924,203.011018 97.2659119,210.661201 95.4479027,210.952082 C76.2012462,214.030578 57.4490881,220.648131 44.664848,233.645684 C44.664848,233.645684 67.9353647,138.008708 195.438404,152.227964 L184.709726,216.003723 Z" id="Path" fill="#6282D5" fill-rule="nonzero"></path>
                <g id="Group" opacity="0.5" style="mix-blend-mode: screen;" transform="translate(63.993921, 178.892097)" fill="#6D9FFB" fill-rule="nonzero">
                    <path d="M0.227857143,33.8343617 C6.04548632,25.91269 13.9913982,19.7750912 22.4512006,14.757386 C30.911003,9.73968085 40.2919301,6.26364742 49.8328419,3.78630699 L57.0660942,2.25433131 C59.4901064,1.72104863 61.9432067,1.54651976 64.3769149,1.19746201 C69.2540274,0.455714286 74.1796201,0.382993921 79.0906687,0.227857143 C81.543769,0.0678723404 83.9968693,0.319969605 86.4499696,0.402386018 L93.7898784,0.761139818 C98.6379027,1.38168693 103.485927,2.05071429 108.333951,2.8118541 C103.437447,2.66156535 98.5845745,2.25917933 93.7268541,2.0943465 L86.4548176,2.12343465 C84.0308055,2.16221884 81.6067933,2.03617021 79.1827812,2.31735562 C74.358997,2.77306991 69.4867325,2.8506383 64.7453647,3.74267477 C62.3601368,4.14506079 59.9361246,4.30504559 57.5848328,4.85772036 L50.5164134,6.41878419 C41.1332268,8.73795187 32.0540259,12.148347 23.4644377,16.5802432 C21.331307,17.7098328 19.1836322,18.8297264 17.1620061,20.1677812 C16.143921,20.8222644 15.0967477,21.4331155 14.0980547,22.1069909 L11.1504559,24.2401216 C7.18916743,27.0538551 3.52890383,30.2689734 0.227857143,33.8343617 Z" id="Path"></path>
                </g>
                <g id="Group" opacity="0.5" style="mix-blend-mode: screen;" transform="translate(129.927052, 180.346505)" fill="#6D9FFB" fill-rule="nonzero">
                    <path d="M12.9927052,0 C10.3408359,4.2274772 7.75683891,8.24164134 5.59946809,12.4497264 C4.51873915,14.5518912 3.56361802,16.7162929 2.73913374,18.931535 C1.95426102,21.21953 1.30670546,23.5523489 0.799924012,25.917538 C-0.378145897,20.9822492 0.911428571,15.6785106 3.18030395,11.2134802 C4.34775834,8.98091958 5.76433047,6.88777569 7.40293313,4.97407295 C9.00734256,3.04621198 10.8915093,1.36958143 12.9927052,0 Z" id="Path"></path>
                </g>
                <path d="M135.836793,128.884726 C136.573693,131.438019 137.312209,133.992928 138.05234,136.549453 C138.184538,137.240391 138.510766,137.879394 138.992857,138.391702 C139.695821,139.002553 140.733298,138.992857 141.664119,138.949225 C142.817948,138.895897 144.088131,138.803784 144.917143,138.023252 C145.402737,137.553643 145.739865,136.951871 145.886748,136.292508 C146.37155,134.411474 145.818875,132.389848 144.82503,130.722128 C143.831185,129.054407 142.430106,127.677568 141.038723,126.32497" id="Path" fill="#EEC0D0" fill-rule="nonzero"></path>
                <path d="M273.510988,40.7234043 C274.40959,37.1562514 275.62815,33.6774325 277.151854,30.3292401 C277.942082,31.3376292 277.854818,32.7532523 277.723921,34.0282827 C278.51196,32.1437156 279.962137,30.6124939 281.801109,29.7232371 C282.007851,29.5525573 282.295689,29.5195659 282.535688,29.6390411 C282.775686,29.7585164 282.922869,30.0080687 282.911307,30.2759119 C284.358662,35.991928 281.357136,41.8976218 275.88652,44.0976292" id="Path" fill="#EEC0D0" fill-rule="nonzero"></path>
                <path d="M198.284195,278.761398 C204.790243,280.346702 210.234574,282.261672 213.225805,284.942629 L188.151824,284.942629 L188.636626,279.125 L198.284195,278.761398 Z" id="Path" fill="#6282D5" fill-rule="nonzero"></path>
                <path d="M167.620441,278.761398 C161.109544,280.346702 155.665213,282.261672 152.67883,284.942629 L177.75766,284.942629 L177.272857,279.125 L167.620441,278.761398 Z" id="Path" fill="#6282D5" fill-rule="nonzero"></path>
                <path d="M211.480517,132.627401 L199.656185,279.803723 C199.656185,279.803723 195.520821,280.812112 194.095502,280.812112 C193.002214,280.735536 191.915379,280.584901 190.842477,280.361246 C189.475334,280.084909 188.277872,279.803723 188.277872,279.803723 L183.851626,168.551261 L178.300638,168.551261 L177.234073,279.803723 C175.27167,280.357643 173.246636,280.659035 171.207979,280.700608 C169.003522,280.631212 166.812025,280.335546 164.667994,279.818267 L150.472979,128.865334 L211.480517,132.627401 Z" id="Path" fill="#313080" fill-rule="nonzero"></path>
                <g id="Group" opacity="0.3" style="mix-blend-mode: multiply;" transform="translate(167.741641, 129.927052)" fill="#313080" fill-rule="nonzero">
                    <path d="M21.0695137,1.30411854 L0.223009119,0.0193920973 C0,27.1489362 4.06264438,123.99307 4.47957447,150.725076 C6.17510957,150.614157 7.85482616,150.329872 9.49243161,149.876672 L10.558997,38.6242097 L16.1099848,38.6242097 L20.536231,149.876672 C20.536231,149.876672 21.733693,150.157857 23.1008359,150.434195 C23.5080699,150.506915 23.920152,150.579635 24.322538,150.64266 C24.322538,120.347356 21.5882523,13.763541 21.0695137,1.30411854 Z" id="Path" opacity="0.5" style="mix-blend-mode: multiply;"></path>
                </g>
                <path d="M171.721869,26.921079 C171.753535,26.9832415 171.779497,27.0481476 171.799438,27.115 C172.696322,31.9630243 177.316489,34.4791489 182.465091,35.894772 C186.63924,37.0486018 187.608845,37.5527964 190.95883,35.1336322 C197.910897,30.1159271 204.092128,23.4450456 202.085046,14.2580395 C202.003979,13.911188 202.065082,13.5463196 202.254726,13.2448024 C200.25734,9.69604863 196.611626,8.00408815 192.563526,4.36322188 C178.964818,-7.96045593 162.806353,9.16276596 168.924559,16.2117933 C169.918404,17.3268389 171.726717,22.3009119 171.721869,26.921079 Z" id="Path" fill="#142462" fill-rule="nonzero"></path>
                <path d="M218.09807,85.8439666 C218.09807,57.8660182 206.520988,40.471307 184.341277,40.471307 C162.161565,40.471307 150.531155,63.8630243 150.531155,91.8603647 L147.137538,173.350805 C147.137538,173.350805 198.832021,183.604377 218.485912,174.005289 L218.09807,85.8439666 Z" id="Path" fill="#9DC0FC" fill-rule="nonzero"></path>
                <path d="M218.09807,85.8439666 C218.09807,78.0192553 217.191489,71.0235562 215.402568,64.997462 C213.434271,95.4430547 210.763009,176.502021 165.467918,176.177204 C182.309954,178.281246 206.428875,179.871398 218.49076,173.981049 L218.09807,85.8439666 Z" id="Path" fill="#9DC0FC" fill-rule="nonzero" opacity="0.3" style="mix-blend-mode: multiply;"></path>
                <path d="M195.729286,23.6341185 C194.890578,18.1316109 189.994073,12.6048632 184.001915,15.4700456 C180.16228,17.3074468 176.182052,17.5207599 173.04538,15.8433435 C172.953267,16.9002128 172.822371,18.4467325 172.706018,20.0708207 C172.041839,18.8539666 170.931641,18.6648936 170.601976,20.1871733 C170.243222,21.8161094 170.684392,24.8412766 172.434529,25.4133435 C172.434529,25.6945289 172.434529,25.9805623 172.434529,26.2181155 C172.516945,30.3340881 174.19921,36.883769 180.874939,38.4448328 C181.238541,39.8992401 181.112492,40.3840426 180.695562,42.3232523 C181.064012,43.6176748 186.256246,44.4466869 187.967599,42.9244073 C187.82293,41.5023602 187.777572,40.0719577 187.831854,38.6436018 C191.778146,38.0133587 195.074802,34.1155471 196.558298,29.112386 C202.531064,25.7575532 198.284195,19.6635866 195.729286,23.6341185 Z" id="Path" fill="#EEC0D0" fill-rule="nonzero"></path>
                <path d="M195.729286,23.6341185 C195.391476,21.4248641 194.454118,19.3506022 193.01924,17.6371125 C193.184073,27.2022644 189.111733,36.0983891 179.871398,38.1539514 C180.196216,38.2606079 180.525881,38.3624164 180.874939,38.4448328 C181.238541,39.8992401 181.112492,40.3840426 180.695562,42.3232523 C181.064012,43.6176748 186.256246,44.4466869 187.967599,42.9244073 C187.82293,41.5023602 187.777572,40.0719577 187.831854,38.6436018 C191.778146,38.0133587 195.074802,34.1155471 196.558298,29.112386 C202.531064,25.7575532 198.284195,19.6635866 195.729286,23.6341185 Z" id="Path" fill="#EEC0D0" fill-rule="nonzero" opacity="0.3" style="mix-blend-mode: multiply;"></path>
                <path d="M170.165653,44.3109422 C144.170547,56.8770213 118.476018,97.3628723 121.307264,106.288085 C124.138511,115.213298 131.328131,125.680182 136.151915,132.646793 L145.591018,130.983921 C145.591018,130.983921 134.362994,114.214605 134.775076,103.990122 C135.022325,97.68769 159.810274,76.9187538 159.810274,76.9187538 L170.165653,44.3109422 Z" id="Path" fill="#9DC0FC" fill-rule="nonzero"></path>
                <path d="M202.162614,45.7362614 C206.234954,48.645076 240.195365,69.0067781 258.884498,51.04 C272.371702,38.0618389 273.733997,35.5505623 273.733997,35.5505623 L278.359012,43.7437234 C278.359012,43.7437234 257.250714,80.9910942 231.721018,76.7102888 C206.191322,72.4294833 205.541687,71.0768845 205.541687,71.0768845 L202.162614,45.7362614 Z" id="Path" fill="#9DC0FC" fill-rule="nonzero"></path>
            </g>
        </g>
    </g>
</svg>