<svg width="523" height="287" xmlns="http://www.w3.org/2000/svg"><g transform="translate(1)" fill="none" fill-rule="evenodd"><path d="M27.89 286.62c-2.76-5.41-20.27-41.12-4.35-79 2-4.68 16.57-38.07 48.43-48.36 1.49-.49 2.24-.69 3.15-.93 28-7.2 39.23 24.87 69 32.28 28.84 7.18 29.35-20.18 66.09-22.72 31.4-2.16 33.41 17.66 91.43 34.68 30.06 8.81 45.89 13.18 66.92 6 27.86-9.55 28.25-26.9 53.67-35.86 27.44-9.67 72.16-5.37 88.52 43 2.91 8.62 9.33 31.69 4.2 70.85l-487.06.06z" fill="#F4F4F4"/><path d="M27.89 286.62c-15.91-26.34-18.13-56.78-4.35-79 2.29-3.69 16.62-25.81 36.59-26.14 8-.13 11.38 3.35 48.09 21.61 8 4 12.63 6.77 15.68 7.68 20.7 6.17 39.55-3.45 86.31 6.6 54.49 11.72 64.93 29.24 91.43 20.22 24.77-8.42 26.8-27.51 48.79-27.88 22.47-.38 32 19.32 56.69 15.88 11.13-1.56 11.65-5.9 25.21-11 19.54-7.35 59.19-13.65 78.42 8.53 13.24 15.28 13.58 40.37 4.2 63.45l-487.06.05z" fill="#E5E5E5"/><path d="M372 169.26v23.13c-.006 15.33-12.43 27.754-27.76 27.76H314v63.07a1.57 1.57 0 0 1-1.57 1.57H191.18a1.57 1.57 0 0 1-1.57-1.57V178.49h-30.23a27.75 27.75 0 0 1-27.76-27.75v-23.12c0-9.488 7.692-17.18 17.18-17.18s17.18 7.692 17.18 17.18v19.16l23.63.14V94.15a44 44 0 0 1 44-44H270c24.3 0 44 19.7 44 44v94.43l23.63-.14v-19.18c0-9.488 7.692-17.18 17.18-17.18s17.18 7.692 17.18 17.18h.01z" stroke="#757575" stroke-width="2" fill="#92DD8A"/><path d="M193.39 177.58h-34.35a27.74 27.74 0 0 1-16.81-6.31 27.37 27.37 0 0 1-9.43-19.55c-.11-3.81-.2-7.16-.28-9.94 0-.16-.09-3.46-.13-7.85a44.87 44.87 0 0 1 .56-9.68 21.9 21.9 0 0 1 .67-2.88 16.25 16.25 0 0 1 12.09-10.24 16.62 16.62 0 0 1 15.73 5.47 16.86 16.86 0 0 1 3.89 9.74c0 7.04.023 14.077.07 21.11l28 .09-.01 30.04z" fill="#81C476"/><path d="M189.9 283.23v-52.69c0-9.08-.06-58.34-.14-91.31 0-10.9.54-21.82.05-32.72-.06-1.28-.11-5.15.07-10.37.13-4 .2-6.16.44-8.14 1.6-13.32 11.33-22.69 12.82-24.09a44.18 44.18 0 0 1 6.47-5l.78 224.33-20.49-.01z" fill="#81C476"/><rect fill="#757575" x="367.36" y="168.2" width="11.79" height="2.14" rx="1.02"/><rect fill="#757575" x="367.36" y="181.95" width="11.79" height="2.14" rx="1.02"/><rect fill="#757575" transform="rotate(-80.69 372.896 196.931)" x="371.826" y="191.036" width="2.14" height="11.79" rx="1.02"/><rect fill="#757575" transform="rotate(-52.37 367.494 209.332)" x="366.424" y="203.437" width="2.14" height="11.79" rx="1.02"/><rect fill="#757575" transform="rotate(-24.63 357.04 217.658)" x="355.97" y="211.763" width="2.14" height="11.79" rx="1.02"/><rect fill="#757575" x="342.39" y="214.26" width="2.14" height="11.79" rx="1.02"/><rect fill="#757575" x="322.97" y="214.27" width="2.14" height="11.79" rx="1.02"/><rect fill="#757575" x="309.37" y="232.13" width="11.79" height="2.14" rx="1.02"/><rect fill="#757575" x="309.37" y="245.89" width="11.79" height="2.14" rx="1.02"/><rect fill="#757575" x="309.37" y="259.64" width="11.79" height="2.14" rx="1.02"/><rect fill="#757575" x="309.37" y="273.39" width="11.79" height="2.14" rx="1.02"/><rect fill="#757575" x="184.96" y="279.61" width="11.79" height="2.14" rx="1.02"/><rect fill="#757575" x="184.96" y="265.85" width="11.79" height="2.14" rx="1.02"/><rect fill="#757575" x="184.96" y="252.1" width="11.79" height="2.14" rx="1.02"/><rect fill="#757575" x="184.96" y="238.35" width="11.79" height="2.14" rx="1.02"/><rect fill="#757575" x="184.96" y="224.6" width="11.79" height="2.14" rx="1.02"/><rect fill="#757575" x="184.96" y="210.85" width="11.79" height="2.14" rx="1.02"/><rect fill="#757575" x="184.96" y="197.09" width="11.79" height="2.14" rx="1.02"/><rect fill="#757575" x="184.96" y="183.34" width="11.79" height="2.14" rx="1.02"/><rect fill="#757575" x="181.94" y="172.6" width="2.14" height="11.79" rx="1.02"/><rect fill="#757575" x="168.19" y="172.6" width="2.14" height="11.79" rx="1.02"/><rect fill="#757575" transform="rotate(-79.16 155.37 178.001)" x="149.476" y="176.931" width="11.79" height="2.14" rx="1.02"/><rect fill="#757575" transform="rotate(-50.92 143.12 172.293)" x="137.225" y="171.223" width="11.79" height="2.14" rx="1.02"/><rect fill="#757575" transform="rotate(-23.12 135.061 161.648)" x="129.166" y="160.578" width="11.79" height="2.14" rx="1.02"/><rect fill="#757575" x="126.97" y="146.92" width="11.79" height="2.14" rx="1.02"/><rect fill="#757575" x="126.97" y="133.16" width="11.79" height="2.14" rx="1.02"/><rect fill="#757575" transform="rotate(-65.74 134.368 120.586)" x="133.298" y="114.691" width="2.14" height="11.79" rx="1.02"/><rect fill="#757575" transform="rotate(-20.75 143.96 111.561)" x="142.89" y="105.666" width="2.14" height="11.79" rx="1.02"/><rect fill="#757575" transform="rotate(-64.08 157.55 112.17)" x="151.655" y="111.101" width="11.79" height="2.14" rx="1.02"/><rect fill="#757575" transform="rotate(-19.03 166.286 122.006)" x="160.391" y="120.936" width="11.79" height="2.14" rx="1.02"/><rect fill="#757575" x="161.33" y="134.72" width="11.79" height="2.14" rx="1.02"/><rect fill="#757575" transform="rotate(-89.66 178.05 146.89)" x="172.155" y="145.82" width="11.79" height="2.14" rx="1.02"/><rect fill="#757575" x="184.96" y="139.23" width="11.79" height="2.14" rx="1.02"/><rect fill="#757575" x="184.96" y="125.48" width="11.79" height="2.14" rx="1.02"/><rect fill="#757575" x="184.96" y="111.73" width="11.79" height="2.14" rx="1.02"/><rect fill="#757575" x="184.96" y="97.98" width="11.79" height="2.14" rx="1.02"/><rect fill="#757575" transform="rotate(-78.15 191.781 85.069)" x="190.711" y="79.174" width="2.14" height="11.79" rx="1.02"/><rect fill="#757575" transform="rotate(-60.2 196.644 72.334)" x="195.574" y="66.439" width="2.14" height="11.79" rx="1.02"/><rect fill="#757575" transform="rotate(-42.74 205.004 61.83)" x="203.934" y="55.935" width="2.14" height="11.79" rx="1.02"/><rect fill="#757575" transform="rotate(-25.19 216.153 54.317)" x="215.083" y="48.422" width="2.14" height="11.79" rx="1.02"/><rect fill="#757575" transform="rotate(-7.08 229.376 50.495)" x="228.306" y="44.6" width="2.14" height="11.79" rx="1.02"/><rect fill="#757575" transform="rotate(-72.22 284.679 52.224)" x="278.784" y="51.154" width="11.79" height="2.14" rx="1.02"/><rect fill="#757575" transform="rotate(-54.46 296.811 58.323)" x="290.916" y="57.253" width="11.79" height="2.14" rx="1.02"/><rect fill="#757575" transform="rotate(-37.04 306.4 67.689)" x="300.505" y="66.619" width="11.79" height="2.14" rx="1.02"/><rect fill="#757575" transform="rotate(-19.34 312.79 79.593)" x="306.895" y="78.523" width="11.79" height="2.14" rx="1.02"/><rect fill="#757575" transform="rotate(-1.06 315.247 93.343)" x="309.352" y="92.273" width="11.79" height="2.14" rx="1.02"/><rect fill="#757575" x="309.37" y="106.05" width="11.79" height="2.14" rx="1.02"/><rect fill="#757575" x="309.37" y="119.8" width="11.79" height="2.14" rx="1.02"/><rect fill="#757575" x="309.37" y="133.55" width="11.79" height="2.14" rx="1.02"/><rect fill="#757575" x="309.37" y="147.3" width="11.79" height="2.14" rx="1.02"/><rect fill="#757575" x="309.37" y="161.05" width="11.79" height="2.14" rx="1.02"/><rect fill="#757575" x="309.37" y="174.81" width="11.79" height="2.14" rx="1.02"/><rect fill="#757575" transform="rotate(-.34 324.373 188.53)" x="323.303" y="182.636" width="2.14" height="11.79" rx="1.02"/><rect fill="#757575" x="332.99" y="182.46" width="11.79" height="2.14" rx="1.02"/><rect fill="#757575" x="332.99" y="168.71" width="11.79" height="2.14" rx="1.02"/><rect fill="#757575" transform="rotate(-45.83 343.745 157.298)" x="342.675" y="151.403" width="2.14" height="11.79" rx="1.02"/><rect fill="#757575" x="355" y="146.19" width="2.14" height="11.79" rx="1.02"/><rect fill="#757575" transform="rotate(-44.17 368.935 158.663)" x="363.04" y="157.593" width="11.79" height="2.14" rx="1.02"/><circle fill="#757575" cx="286.68" cy="110.84" r="3.72"/><circle fill="#757575" cx="216.94" cy="110.84" r="3.72"/><rect fill="#757575" x="239.35" y="42" width="24.94" height="1.38" rx=".35"/><rect fill="#757575" transform="rotate(-45 256.964 38.446)" x="250.709" y="37.691" width="12.51" height="1.51" rx=".33"/><rect fill="#757575" transform="rotate(-135 246.723 38.428)" x="240.453" y="37.673" width="12.54" height="1.51" rx=".33"/><rect fill="#757575" transform="rotate(-90 251.805 37.445)" x="246.17" y="36.69" width="11.27" height="1.51" rx=".33"/><path d="M420.94 245v7.77c0 5.15 3.75 9.33 8.37 9.33h9.12v21.2a.5.5 0 0 0 .47.53h36.55a.51.51 0 0 0 .48-.53v-35.2H485c4.62 0 8.37-4.18 8.37-9.33V231c0-3.19-2.32-5.78-5.18-5.78a4.91 4.91 0 0 0-3.66 1.69 6.11 6.11 0 0 0-1.52 4.09v6.44l-7.12.05v-17.73c0-8.17-5.94-14.8-13.27-14.8h-11c-7.33 0-13.26 6.63-13.26 14.8v31.74l-7.13-.05V245a6.1 6.1 0 0 0-1.51-4.09 4.93 4.93 0 0 0-3.67-1.69c-2.78.01-5.11 2.6-5.11 5.78z" fill="#D8D8D8"/><g opacity=".44" fill="#C4C5C6"><path d="M475.85 284.49v-65.06a15.94 15.94 0 0 0-3.75-9.77 12.73 12.73 0 0 0-10-4.34h-.27v78.88l14.02.29z"/><path d="M473.8 248.4l10.95.07a8.06 8.06 0 0 0 5-1.62 9.21 9.21 0 0 0 2.74-3.39 10.19 10.19 0 0 0 1-4.15l-.05-5.61a13.12 13.12 0 0 0 0-1.84 8.35 8.35 0 0 0-.49-2.93 5.6 5.6 0 0 0-1.73-2.3 5 5 0 0 0-4.59-.75 5.86 5.86 0 0 0-2.2 1.77 5.31 5.31 0 0 0-1.28 3.21 54.5 54.5 0 0 0-.09 6.94l-9.35.07.09 10.53z"/></g><rect fill="#757575" transform="rotate(-45 83.533 260.57)" x="74.783" y="259.599" width="17.5" height="1.94" rx=".33"/><rect fill="#757575" transform="rotate(-135 70.3 260.457)" x="61.549" y="259.487" width="17.5" height="1.94" rx=".33"/><rect fill="#757575" transform="rotate(-90 76.89 258.26)" x="68.14" y="257.29" width="17.5" height="1.94" rx=".33"/><rect fill="#757575" transform="rotate(45 83.483 272.114)" x="74.733" y="271.144" width="17.5" height="1.94" rx=".33"/><rect fill="#757575" transform="rotate(135 70.256 271.992)" x="61.506" y="271.022" width="17.5" height="1.94" rx=".33"/><rect fill="#757575" transform="rotate(90 76.85 274.35)" x="68.1" y="273.38" width="17.5" height="1.94" rx=".33"/><rect fill="#757575" x="79.04" y="265.25" width="17.5" height="1.94" rx=".33"/><rect fill="#757575" x="57.83" y="264.98" width="17.5" height="1.94" rx=".33"/><g opacity=".36"><path d="M430.28 281.81l-7.28 2.86-8.52-.93-5.43-2.65a3.15 3.15 0 0 1-1.69-2.15l-.47-2.13a.39.39 0 0 1 .11-.38l5.82-5.55a3.13 3.13 0 0 1 1.67-.81l4.55-.65 4.23 2.24h1.53a4.41 4.41 0 0 1 3.44 1.66l2.21 2.75-.17 5.74z" fill="#C1C1C1"/><path d="M408.57 274.94l8.08 3.81 4.76-.15 6.2 1 2.85-3.54c-1.41-2-2.75-3.62-3.81-4a6.91 6.91 0 0 0-3.37-.41l-4.23-2.24-1.89.27c-.47.07-.94.16-1.41.2a7.05 7.05 0 0 0-1.57.24c-.2.06-.36.13-.47.17a3.36 3.36 0 0 0-.88.58c-1.39 1.36-2.83 2.66-4.26 4.07z" fill="#D6D6D6"/><path fill="#ADADAD" d="M430.46 276.08l-.18 5.73-2.67-2.19z"/><path fill="#B2B2B2" d="M414.49 283.74l6.92-5.14 1.6 6.07z"/><path fill="#A0A0A0" d="M414.49 283.74l.24-3.95 1.92-1 4.76-.15z"/><path d="M414.49 283.74c-3.16-1.64-6.19-2.78-6.46-3.46-.55-.47-.85-2-1.13-3.47l7.83 3-.24 3.93z" fill="#7F7F7F"/><path d="M412.09 280.28a1.58 1.58 0 0 1-1.29.15c-.2-.08-.42-.23-1-1.18a16.63 16.63 0 0 1-.79-1.62l3.92 1.49a1.91 1.91 0 0 1-.84 1.16z" fill="#939393"/><path fill="#8E8E8E" d="M416.65 278.75l-8.08-3.81 1.48-1.37z"/><path d="M408.57 274.94l8.08 3.81 4.76-.15a11.27 11.27 0 0 0 5.77-.59 11.09 11.09 0 0 0 3.28-1.93c-1.41-2-2.75-3.62-3.81-4a6.91 6.91 0 0 0-3.37-.41l-4.23-2.24-1.89.27c-.47.07-.94.16-1.41.2a7.05 7.05 0 0 0-1.57.24c-.2.06-.36.13-.47.17a3.36 3.36 0 0 0-.88.58c-1.39 1.34-2.83 2.64-4.26 4.05z" fill="#B7B7B7"/><path fill="#CCC" d="M416.65 278.75l-8.08-3.81 2.91-2.76z"/></g><rect fill="#757575" x="239.72" y="155.21" width="24.19" height="2.68" rx=".67"/><path fill="#9E9E9E" d="M516.24 283.26l-490.47-.33 2.12 3.69H515z"/><path d="M476.61 109.37a1.3 1.3 0 0 1-1.31 1.28h-61a1.3 1.3 0 0 1-1.31-1.28c.006-6.237 5.063-11.29 11.3-11.29a10.89 10.89 0 0 1 2.15.21 22.64 22.64 0 0 1 41.89 2.28 8.81 8.81 0 0 1 8.28 8.8zM75.49 46.56H1.88A1.87 1.87 0 0 1 0 44.69v-3.9c0-12.106 9.814-21.92 21.92-21.92.37 0 .75 0 1.13.07C33.427 4.29 53.341.114 68.73 9.36a20.74 20.74 0 0 1 20.82-7.95c9.706 1.9 16.672 10.46 16.56 20.35a20.4 20.4 0 0 1-.43 4.24h.38c13.24.71 12.56 20.54-.69 20.54l-29.88.02z" stroke="#BFBFBF" stroke-width="2"/><rect stroke="#BFBFBF" x="486.45" y="142.95" width="3.82" height="1" rx=".11"/><rect stroke="#BFBFBF" x="478.9" y="142.95" width="3.82" height="1" rx=".11"/><rect stroke="#BFBFBF" transform="rotate(-90 484.58 139.35)" x="482.67" y="139.17" width="3.82" height="1" rx=".11"/><rect stroke="#BFBFBF" transform="rotate(-90 484.72 146.92)" x="482.81" y="146.74" width="3.82" height="1" rx=".11"/><rect stroke="#BFBFBF" x="47.67" y="120.63" width="5.11" height="1" rx=".11"/><rect stroke="#BFBFBF" x="37.57" y="120.63" width="5.11" height="1" rx=".11"/><rect stroke="#BFBFBF" transform="rotate(-90 45.17 115.805)" x="42.615" y="115.565" width="5.11" height="1" rx=".11"/><rect stroke="#BFBFBF" transform="rotate(-90 45.35 125.945)" x="42.795" y="125.705" width="5.11" height="1" rx=".11"/><rect stroke="#BFBFBF" x="152.78" y="57.6" width="6.54" height="1" rx=".11"/><rect stroke="#BFBFBF" x="139.85" y="57.6" width="6.54" height="1" rx=".11"/><rect stroke="#BFBFBF" transform="rotate(-90 149.585 51.18)" x="146.185" y="50.875" width="6.8" height="1" rx=".11"/><rect stroke="#BFBFBF" transform="rotate(-90 149.805 64.65)" x="146.405" y="64.345" width="6.8" height="1" rx=".11"/></g></svg>