<?xml version="1.0" encoding="UTF-8"?>
<svg width="511px" height="319px" viewBox="0 0 511 319" version="1.1" xmlns="http://www.w3.org/2000/svg" xmlns:xlink="http://www.w3.org/1999/xlink">
    <!-- Generator: Sketch 55 (78076) - https://sketchapp.com -->
    <title>Asset 2</title>
    <desc>Created with Sketch.</desc>
    <defs>
        <linearGradient x1="-34.7502402%" y1="58.8032726%" x2="146.573807%" y2="39.9689099%" id="linearGradient-1">
            <stop stop-color="#C7EFE8" stop-opacity="0.02" offset="0%"></stop>
            <stop stop-color="#BAECE2" stop-opacity="0.09" offset="3%"></stop>
            <stop stop-color="#89E0CD" stop-opacity="0.33" offset="15%"></stop>
            <stop stop-color="#5FD6BA" stop-opacity="0.53" offset="28%"></stop>
            <stop stop-color="#3CCEAB" stop-opacity="0.7" offset="41%"></stop>
            <stop stop-color="#22C7A0" stop-opacity="0.83" offset="54%"></stop>
            <stop stop-color="#0FC397" stop-opacity="0.93" offset="68%"></stop>
            <stop stop-color="#04C093" stop-opacity="0.98" offset="83%"></stop>
            <stop stop-color="#00BF91" offset="100%"></stop>
        </linearGradient>
    </defs>
    <g id="Page-1" stroke="none" stroke-width="1" fill="none" fill-rule="evenodd">
        <g id="finished-time" transform="translate(-465.000000, -268.000000)">
            <g id="Asset-2" transform="translate(465.000000, 268.000000)">
                <path d="M49.6899464,289.845679 C25.2522679,285.755643 -2.04501786,275.097625 0.769017857,267.396054 C6.26607143,252.385964 124.882804,251.867589 269.828429,251.2125 C288.108268,251.13275 339.729304,251.030214 405.716732,256.601321 C463.620929,261.494554 510.884196,268.928393 509.898714,272.767786 C508.793607,277.068589 447.414589,275.405232 445.648696,281.751054 C444.822714,284.730286 460.111929,286.536054 460.072054,289.828589 C460.009393,294.801571 425.893482,297.54725 357.599,302.827839 C357.599,302.827839 265.601679,309.948375 220.001768,289.828589 C218.716069,289.284199 217.492025,288.604386 216.350357,287.800661 C214.966125,286.809482 214.641429,286.171482 211.850179,284.889786 C180.645143,270.523393 113.279179,300.486607 49.6899464,289.845679 Z" id="Path" fill="#C7EFE8"></path>
                <path d="M121.812429,23.9705714 L268.244821,23.9705714 L256.908929,38.6844464 L274.522286,58.576375 L258.612161,72.213625 C262.212304,78.6695774 265.810548,85.1103393 269.406893,91.5359107 L254.060714,103.327518 C258.796345,109.434089 263.52628,115.54256 268.250518,121.652929 L254.630357,133.586946 C257.850738,138.903613 261.078714,144.208887 264.314286,149.502768 L248.364286,163.140018 L259.1875,177.916554 L246.085714,194.396321 L255.769643,213.148964 L245.573036,229.503411 L258.139357,244.946429 L245.516071,263.175 L121.812429,263.175 C106.082175,263.175 93.3302857,250.42311 93.3302857,234.692857 L93.3302857,52.4527143 C93.3302857,36.7224611 106.082175,23.9705714 121.812429,23.9705714 Z" id="Path" fill="#1B1464"></path>
                <path d="M252.061268,38.6844464 L257.524143,31.5354286 L121.949143,31.5354286 C110.537473,31.6324699 101.343052,40.9210229 101.36225,52.3330893 L101.36225,60.5473393 C101.362172,62.1093084 102.620091,63.3799339 104.181982,63.3955536 L263.932625,63.3955536 L269.498036,58.576375 L252.061268,38.6844464 Z" id="Path" fill="#2B398E"></path>
                <path d="M242.155179,234.014982 C245.53506,228.417292 248.933929,222.8215 252.351786,217.227607 L242.667857,197.973679 C247.035119,192.334214 251.402381,186.696649 255.769643,181.060982 L244.946429,165.891393 L260.845161,151.889571 L251.2125,135.575 C255.769643,131.496357 260.311595,127.413917 264.838357,123.327679 L250.665643,104.529464 L265.977643,92.4245536 L255.484821,73.1364464 L104.204768,73.1364464 C102.611908,73.1583273 101.337551,74.4658177 101.356554,76.0587143 L101.356554,231.064232 C101.356554,243.926768 111.610125,254.453768 124.142268,254.453768 L251.628339,254.453768 L254.738589,249.839661 L242.155179,234.014982 Z" id="Path" fill="#FFFFFF"></path>
                <circle id="Oval" fill="#252A77" cx="149.075536" cy="47.4683393" r="9.05732143"></circle>
                <rect id="Rectangle" fill="#C5DADD" x="143.62975" y="0" width="10.2193929" height="51.1653214" rx="5.10969643"></rect>
                <rect id="Rectangle" fill="#C7EFE8" x="214.083179" y="131.034946" width="25.0585893" height="25.0585893" rx="12.5292946"></rect>
                <rect id="Rectangle" fill="#C7EFE8" x="170.1865" y="131.034946" width="25.0585893" height="25.0585893" rx="12.5292946"></rect>
                <rect id="Rectangle" fill="#C7EFE8" x="125.953732" y="131.034946" width="25.0585893" height="25.0585893" rx="12.5292946"></rect>
                <rect id="Rectangle" fill="#C7EFE8" x="126.289821" y="164.866036" width="25.0585893" height="25.0585893" rx="12.5292946"></rect>
                <rect id="Rectangle" fill="#C7EFE8" x="170.1865" y="164.866036" width="25.0585893" height="25.0585893" rx="12.5292946"></rect>
                <rect id="Rectangle" fill="#C7EFE8" x="214.083179" y="164.866036" width="25.0585893" height="25.0585893" rx="12.5292946"></rect>
                <rect id="Rectangle" fill="#C7EFE8" x="214.083179" y="198.697125" width="25.0585893" height="25.0585893" rx="12.5292946"></rect>
                <rect id="Rectangle" fill="#C7EFE8" x="170.1865" y="198.697125" width="25.0585893" height="25.0585893" rx="12.5292946"></rect>
                <rect id="Rectangle" fill="#C7EFE8" x="126.289821" y="98.3659286" width="25.0585893" height="25.0585893" rx="12.5292946"></rect>
                <rect id="Rectangle" fill="#C7EFE8" x="170.1865" y="98.3659286" width="25.0585893" height="25.0585893" rx="12.5292946"></rect>
                <rect id="Rectangle" fill="#C7EFE8" x="214.083179" y="98.3659286" width="25.0585893" height="25.0585893" rx="12.5292946"></rect>
                <path d="M469.231911,58.93525 L331.378339,9.57 L337.114643,27.2574107 L313.821946,40.0401964 L324.206536,58.2687679 L307.527393,72.8003571 L317.980339,89.0636607 L298.441589,101.538839 L307.259661,117.346429 L292.796429,129.092464 L303.181018,147.321036 L288.034214,157.574607 L294.784482,177.512107 L279.36425,191.912679 C280.723798,198.190143 282.087143,204.467607 283.454286,210.745071 L266.399179,220.998643 C268.297988,228.141964 270.210089,235.285286 272.135482,242.428607 L388.593268,284.132161 C395.705286,286.678823 403.537688,286.295827 410.367312,283.067433 C417.196935,279.839039 422.46429,274.029721 425.010536,266.917554 L486.475,95.3525179 C489.020274,88.2368322 488.633293,80.4013048 485.399258,73.5710475 C482.165222,66.7407901 476.349284,61.4758016 469.231911,58.93525 Z" id="Path" fill="#1B1464"></path>
                <path d="M341.956607,28.6758214 C341.056571,25.8276071 340.158435,22.9793929 339.262196,20.1311786 L349.191071,23.6287857 L466.867893,65.0418214 C472.00751,66.8960912 476.192353,70.7284121 478.490582,75.6854398 C480.788812,80.6424674 481.009613,86.3126389 479.103821,91.433375 L476.289786,99.169125 C475.755813,100.643676 474.140929,101.420744 472.655464,100.917929 L322.303929,48.0038036 L318.720875,41.6238036 L341.956607,28.6758214 Z" id="Path" fill="#2B398E"></path>
                <path d="M285.818304,215.638304 L281.830804,196.367286 L297.353571,181.528089 C295.143357,174.737946 292.931244,167.947804 290.717232,161.157661 L305.938089,150.545214 L295.644643,131.957768 L310.187625,119.86425 C307.278649,114.475429 304.369673,109.086607 301.460696,103.697786 L321.084893,90.8010714 L310.723089,74.2016786 L327.043357,59.6074286 L469.4085,111.040482 C470.903308,111.600375 471.666413,113.261402 471.117429,114.76025 L419.308411,260.731232 C415.007607,272.841839 401.848857,279.267411 390.062946,275.012179 L270.067679,231.656661 C269.611964,229.860387 269.152452,228.062214 268.689143,226.262143 L285.818304,215.638304 Z" id="Path" fill="#FFFFFF"></path>
                <circle id="Oval" fill="#252A77" cx="435.645768" cy="71.8661429" r="9.05732143"></circle>
                <path d="M443.333894,25.8169942 L443.333894,25.8169942 C446.155901,25.8169942 448.44359,28.1046832 448.44359,30.9266906 L448.44359,71.8726192 C448.44359,74.6946266 446.155901,76.9823156 443.333894,76.9823156 L443.333894,76.9823156 C440.511886,76.9823156 438.224197,74.6946266 438.224197,71.8726192 L438.224197,30.9266906 C438.224197,28.1046832 440.511886,25.8169942 443.333894,25.8169942 Z" id="Rectangle" fill="#C5DADD" transform="translate(443.333894, 51.399655) rotate(-160.300000) translate(-443.333894, -51.399655) "></path>
                <path d="M330.237014,123.676246 L330.237014,123.676246 C337.156753,123.676246 342.766309,129.285802 342.766309,136.20554 L342.766309,136.20554 C342.766309,143.125279 337.156753,148.734835 330.237014,148.734835 L330.237014,148.734835 C323.317276,148.734835 317.70772,143.125279 317.70772,136.20554 L317.70772,136.20554 C317.70772,129.285802 323.317276,123.676246 330.237014,123.676246 Z" id="Rectangle" fill="#C7EFE8" transform="translate(330.237014, 136.205540) rotate(-160.300000) translate(-330.237014, -136.205540) "></path>
                <path d="M371.561213,138.478036 L371.561213,138.478036 C378.480951,138.478036 384.090507,144.087592 384.090507,151.007331 L384.090507,151.007331 C384.090507,157.927069 378.480951,163.536625 371.561213,163.536625 L371.561213,163.536625 C364.641474,163.536625 359.031918,157.927069 359.031918,151.007331 L359.031918,151.007331 C359.031918,144.087592 364.641474,138.478036 371.561213,138.478036 Z" id="Rectangle" fill="#C7EFE8" transform="translate(371.561213, 151.007331) rotate(-160.300000) translate(-371.561213, -151.007331) "></path>
                <path d="M413.204522,153.389729 L413.204522,153.389729 C420.12426,153.389729 425.733817,158.999285 425.733817,165.919024 L425.733817,165.919024 C425.733817,172.838762 420.12426,178.448318 413.204522,178.448318 L413.204522,178.448318 C406.284784,178.448318 400.675227,172.838762 400.675227,165.919024 L400.675227,165.919024 C400.675227,158.999285 406.284784,153.389729 413.204522,153.389729 Z" id="Rectangle" fill="#C7EFE8" transform="translate(413.204522, 165.919024) rotate(-160.300000) translate(-413.204522, -165.919024) "></path>
                <path d="M401.48381,185.131065 L401.48381,185.131065 C408.403548,185.131065 414.013105,190.740621 414.013105,197.66036 L414.013105,197.66036 C414.013105,204.580098 408.403548,210.189654 401.48381,210.189654 L401.48381,210.189654 C394.564072,210.189654 388.954515,204.580098 388.954515,197.66036 L388.954515,197.66036 C388.954515,190.740621 394.564072,185.131065 401.48381,185.131065 Z" id="Rectangle" fill="#C7EFE8" transform="translate(401.483810, 197.660360) rotate(-160.300000) translate(-401.483810, -197.660360) "></path>
                <path d="M361.214181,169.562399 L361.214181,169.562399 C368.131151,169.562399 373.738463,175.169711 373.738463,182.086681 L373.738463,182.086681 C373.738463,189.003651 368.131151,194.610963 361.214181,194.610963 L361.214181,194.610963 C354.297212,194.610963 348.6899,189.003651 348.6899,182.086681 L348.6899,182.086681 C348.6899,175.169711 354.297212,169.562399 361.214181,169.562399 Z" id="Rectangle" fill="#EDAF77" transform="translate(361.214181, 182.086681) rotate(-160.114835) translate(-361.214181, -182.086681) "></path>
                <path d="M318.830051,155.53126 L318.830051,155.53126 C325.749789,155.53126 331.359345,161.140817 331.359345,168.060555 L331.359345,168.060555 C331.359345,174.980293 325.749789,180.58985 318.830051,180.58985 L318.830051,180.58985 C311.910312,180.58985 306.300756,174.980293 306.300756,168.060555 L306.300756,168.060555 C306.300756,161.140817 311.910312,155.53126 318.830051,155.53126 Z" id="Rectangle" fill="#C7EFE8" transform="translate(318.830051, 168.060555) rotate(-160.300000) translate(-318.830051, -168.060555) "></path>
                <path d="M307.424674,187.382832 L307.424674,187.382832 C314.344412,187.382832 319.953969,192.992389 319.953969,199.912127 L319.953969,199.912127 C319.953969,206.831865 314.344412,212.441422 307.424674,212.441422 L307.424674,212.441422 C300.504936,212.441422 294.895379,206.831865 294.895379,199.912127 L294.895379,199.912127 C294.895379,192.992389 300.504936,187.382832 307.424674,187.382832 Z" id="Rectangle" fill="#C7EFE8" transform="translate(307.424674, 199.912127) rotate(-160.300000) translate(-307.424674, -199.912127) "></path>
                <path d="M349.884555,201.488261 L349.884555,201.488261 C356.801525,201.488261 362.408837,207.095573 362.408837,214.012543 L362.408837,214.012543 C362.408837,220.929513 356.801525,226.536825 349.884555,226.536825 L349.884555,226.536825 C342.967585,226.536825 337.360273,220.929513 337.360273,214.012543 L337.360273,214.012543 C337.360273,207.095573 342.967585,201.488261 349.884555,201.488261 Z" id="Rectangle" fill="#C7EFE8" transform="translate(349.884555, 214.012543) rotate(-160.114835) translate(-349.884555, -214.012543) "></path>
                <path d="M341.25482,92.9234742 L341.25482,92.9234742 C348.174558,92.9234742 353.784114,98.5330305 353.784114,105.452769 L353.784114,105.452769 C353.784114,112.372507 348.174558,117.982063 341.25482,117.982063 L341.25482,117.982063 C334.335081,117.982063 328.725525,112.372507 328.725525,105.452769 L328.725525,105.452769 C328.725525,98.5330305 334.335081,92.9234742 341.25482,92.9234742 Z" id="Rectangle" fill="#C7EFE8" transform="translate(341.254820, 105.452769) rotate(-160.300000) translate(-341.254820, -105.452769) "></path>
                <path d="M493.988589,313.799161 C493.988589,316.544839 478.038589,318.772143 458.408696,318.772143 C438.778804,318.772143 422.828804,316.544839 422.828804,313.799161 C422.828804,311.053482 438.778804,308.831875 458.408696,308.831875 C478.038589,308.831875 493.988589,311.059179 493.988589,313.799161 Z" id="Path" fill="url(#linearGradient-1)" opacity="0.5"></path>
                <path d="M432.358929,161.419696 C432.358929,161.419696 421.324946,210.198214 438.807286,243.31725 L456.283929,276.447679 C456.283929,276.447679 460.892339,193.627304 432.358929,161.419696 Z" id="Path" fill="#5BB59B"></path>
                <path d="M433.116554,288.746268 C434.176089,294.721821 435.537536,300.760036 438.499679,306.063411 C441.461821,311.366786 446.241125,315.918232 452.171107,317.348036 C454.848429,317.997429 457.633982,317.986036 460.391054,317.917679 C463.410161,317.837929 466.565982,317.649946 469.16925,316.111911 C472.587107,314.112464 474.341607,310.255982 475.720143,306.570393 C478.056972,300.322273 479.826216,293.87635 481.006429,287.310768 C481.684304,283.528339 482.145714,279.421214 480.357036,276.003357 C477.964536,271.377857 472.353554,269.515125 467.209679,268.672054 C458.665036,267.282125 446.890518,266.564375 438.727536,270.044893 C431.521554,273.081089 431.954482,282.212464 433.116554,288.746268 Z" id="Path" fill="#FFFFFF"></path>
                <path d="M452.5015,276.601482 C459.285946,277.000232 466.634339,275.963482 470.900964,273.662125 C471.755429,273.200714 472.51875,272.608286 472.114304,272.044339 C471.635804,271.383554 469.835732,271.110125 468.257821,270.944929 C460.100536,270.101857 451.071696,269.725893 443.091,271.075946 C431.401929,273.058304 446.292393,276.242607 452.5015,276.601482 Z" id="Path" fill="#524F63"></path>
                <path d="M448.929839,149.457196 C448.929839,149.457196 443.41,242.394429 456.283929,276.447679 C456.283929,276.447679 464.577929,193.627304 448.929839,149.457196 Z" id="Path" fill="#63A590"></path>
                <path d="M454.666143,275.764107 L457.656768,275.764107 C462.054411,257.364643 475.213161,197.768607 468.257821,169.952946 C468.257821,169.952946 446.172768,248.170607 451.692607,265.652946 L454.666143,275.764107 Z" id="Path" fill="#5BB59B"></path>
            </g>
        </g>
    </g>
</svg>