<?xml version="1.0" encoding="UTF-8"?>
<svg width="20px" height="14px" viewBox="0 0 20 14" version="1.1" xmlns="http://www.w3.org/2000/svg" xmlns:xlink="http://www.w3.org/1999/xlink">
    <!-- Generator: Sketch 55 (78076) - https://sketchapp.com -->
    <title>Combined Shape</title>
    <desc>Created with Sketch.</desc>
    <g id="Page-1" stroke="none" stroke-width="1" fill="none" fill-rule="evenodd">
        <g id="add-survey---step-3-copy" transform="translate(-963.000000, -326.000000)" fill="#03AEC7">
            <path d="M963,327 C963,326.447715 963.447715,326 964,326 L982,326 C982.552285,326 983,326.447715 983,327 C983,327.552285 982.552285,328 982,328 L964,328 C963.447715,328 963,327.552285 963,327 Z M966,333 C966,332.447715 966.447715,332 967,332 L979,332 C979.552285,332 980,332.447715 980,333 C980,333.552285 979.552285,334 979,334 L967,334 C966.447715,334 966,333.552285 966,333 Z M969,339 C969,338.447715 969.447715,338 970,338 L976,338 C976.552285,338 977,338.447715 977,339 C977,339.552285 976.552285,340 976,340 L970,340 C969.447715,340 969,339.552285 969,339 Z" id="Combined-Shape"></path>
        </g>
    </g>
</svg>