<?xml version="1.0" encoding="UTF-8"?>
<svg width="64px" height="64px" viewBox="0 0 64 64" version="1.1" xmlns="http://www.w3.org/2000/svg" xmlns:xlink="http://www.w3.org/1999/xlink">
    <!-- Generator: Sketch 52.4 (67378) - http://www.bohemiancoding.com/sketch -->
    <title>Group</title>
    <desc>Created with Sketch.</desc>
    <g id="Symbols" stroke="none" stroke-width="1" fill="none" fill-rule="evenodd">
        <g id="logo-64" fill-rule="nonzero">
            <g id="Group">
                <path d="M32,60 C47.463973,60 60,47.463973 60,32 C60,16.536027 47.463973,4 32,4 C16.536027,4 4,16.536027 4,32 C4,47.463973 16.536027,60 32,60 Z M32,64 C14.326888,64 0,49.673112 0,32 C0,14.326888 14.326888,0 32,0 C49.673112,0 64,14.326888 64,32 C64,49.673112 49.673112,64 32,64 Z" id="Oval" fill="#2F4AA1"></path>
                <polygon id="Path" fill="#05BEDA" points="26.4606717 20 38 37.4340233 38 20 42 20 42 44 37.545494 44 37.545494 43.9945438 26 26.5512051 26 43.9947532 22 44 22 20 26.4606717 20"></polygon>
            </g>
        </g>
    </g>
</svg>