<?xml version="1.0" encoding="UTF-8"?>
<svg width="688px" height="321px" viewBox="0 0 688 321" version="1.1" xmlns="http://www.w3.org/2000/svg" xmlns:xlink="http://www.w3.org/1999/xlink">
    <!-- Generator: Sketch 55 (78076) - https://sketchapp.com -->
    <title>not found</title>
    <desc>Created with Sketch.</desc>
    <g id="Page-1" stroke="none" stroke-width="1" fill="none" fill-rule="evenodd">
        <g id="not-found" transform="translate(-377.000000, -266.000000)">
            <g transform="translate(377.000000, 268.000000)">
                <path d="M14.5274509,319 C10.867388,311.845471 -12.353209,264.625578 8.75697276,214.537861 C11.4100662,208.345285 30.7294098,164.197631 72.9859519,150.585989 C74.9637124,149.942683 75.9586224,149.678145 77.164574,149.383547 C114.295822,139.860207 129.189323,182.270333 168.672177,192.070234 C206.91893,201.563513 207.594263,165.382037 256.320735,162.009187 C297.986361,159.141363 300.627395,185.354596 377.579162,207.858296 C417.44792,219.509958 438.437507,225.293704 466.331166,215.794413 C503.275492,203.168773 503.794051,180.220169 537.482307,168.376117 C573.871895,155.588147 633.180592,161.275697 654.87566,225.233582 C658.734705,236.656779 667.248723,267.138681 660.447156,318.921841 L14.5274509,319 Z" id="Path" fill="#E5E5E5"></path>
                <path d="M212.939584,142.852758 L213,316.596463 L176.835117,317 L176.690119,239.629333 L109.531944,239.629333 C109.129172,239.665471 108.73647,239.683539 108.353837,239.683539 L99.8956282,239.683539 C92.2309239,239.66039 86.0232215,233.471839 86,225.830781 L86,142.852758 C86.0232215,135.211701 92.2309239,129.02315 99.8956282,129 L108.353837,129 C116.018541,129.02315 122.226243,135.211701 122.249465,142.852758 L122.249465,203.491702 L176.678036,203.491702 L176.678036,142.852758 C176.701258,135.211701 182.90896,129.02315 190.573664,129 L199.031873,129 C206.701295,129.016536 212.916331,135.207014 212.939584,142.852758 Z" id="Path" stroke="#757575" stroke-width="2" fill="#92DD8A"></path>
                <path d="M106,239 L98.8492984,238.9397 C95.1588237,238.690504 91.7157575,237.016146 89.2641855,234.278476 C87.2404587,231.910842 86.0896402,228.934516 86,225.836414 L86,142.790649 C86.0305064,141.783631 86.2989628,136.350562 90.2708969,132.774746 C91.6884794,131.552315 93.3226472,130.599618 95.0909091,129.964745 C96.2774711,129.572934 97.5058784,129.317981 98.7516779,129.20496 C101.05988,128.93168 103.392836,128.93168 105.701037,129.20496 L106,239 Z" id="Path" fill="#7BC679"></path>
                <rect id="Rectangle" fill="#757575" x="344" y="112" width="29" height="2" rx="0.67"></rect>
                <path d="M357.701899,107.344433 L370.816624,107.370658 C371.163579,107.371352 371.444669,107.652442 371.445363,107.999397 L371.44631,108.473025 C371.447006,108.820964 371.16551,109.103588 370.817571,109.104284 C370.816732,109.104286 370.815892,109.104286 370.815052,109.104284 L357.700327,109.078059 C357.353372,109.077366 357.072281,108.796276 357.071588,108.44932 L357.070641,107.975692 C357.069945,107.627753 357.351441,107.345129 357.69938,107.344433 C357.700219,107.344432 357.701059,107.344432 357.701899,107.344433 Z" id="Rectangle" fill="#757575" transform="translate(364.258475, 108.224359) rotate(-45.000000) translate(-364.258475, -108.224359) "></path>
                <path d="M352.220906,101.002079 L352.694535,101.003026 C353.04149,101.00372 353.32258,101.28481 353.323274,101.631765 L353.349571,114.782608 C353.350266,115.130546 353.06877,115.413171 352.720832,115.413866 C352.719992,115.413868 352.719152,115.413868 352.718312,115.413866 L352.244684,115.412919 C351.897728,115.412225 351.616638,115.131135 351.615945,114.78418 L351.589648,101.633338 C351.588952,101.285399 351.870448,101.002775 352.218387,101.002079 C352.219227,101.002077 352.220067,101.002077 352.220906,101.002079 Z" id="Rectangle" fill="#757575" transform="translate(352.469609, 108.207973) rotate(-45.000000) translate(-352.469609, -108.207973) "></path>
                <path d="M216.739591,144 L208.266761,144 C208.120677,144 208,143.805556 208,143.5625 L208,142.4375 C208,142.194444 208.120677,142 208.266761,142 L216.739591,142 C216.885674,142 217,142.201389 217,142.4375 L217,143.569444 C217,143.798611 216.885674,144 216.739591,144 Z" id="Path" fill="#757575"></path>
                <path d="M208,153.582122 L208,152.437165 C208,152.194296 208.114326,152 208.260409,152 L216.733239,152 C216.879323,152 217,152.194296 217,152.437165 L217,153.561304 C217,153.804174 216.879323,153.99847 216.733239,153.99847 L208.260409,153.99847 C208.114326,154.019287 208,153.824991 208,153.582122 Z" id="Path" fill="#757575"></path>
                <path d="M208,163.5625 L208,162.4375 C208,162.194444 208.120677,162 208.266761,162 L216.739591,162 C216.885674,162 217,162.194444 217,162.4375 L217,163.5625 C217,163.805556 216.885674,164 216.739591,164 L208.266761,164 C208.120677,164 208,163.805556 208,163.5625 Z" id="Path" fill="#757575"></path>
                <path d="M208,173.557093 L208,172.435986 C208,172.193772 208.120677,172 208.260409,172 L216.733239,172 C216.879323,172 217,172.200692 217,172.435986 L217,173.564014 C217,173.799308 216.879323,174 216.733239,174 L208.266761,174 C208.120677,173.99308 208,173.778547 208,173.557093 Z" id="Path" fill="#757575"></path>
                <path d="M208,183.5625 L208,182.4375 C208,182.194444 208.114407,182 208.260593,182 L216.739407,182 C216.885593,182 217,182.194444 217,182.4375 L217,183.5625 C217,183.805556 216.885593,184 216.739407,184 L208.260593,184 C208.114407,184 208,183.805556 208,183.5625 Z" id="Path" fill="#757575"></path>
                <path d="M208,192.5625 L208,191.4375 C208,191.194444 208.120677,191 208.266761,191 L216.733239,191 C216.879323,191 217,191.194444 217,191.4375 L217,192.5625 C217,192.805556 216.879323,193 216.739591,193 L208.266761,193 C208.120677,193 208,192.805556 208,192.5625 Z" id="Path" fill="#757575"></path>
                <path d="M208,202.557093 L208,201.435986 C208,201.193772 208.114326,201 208.260409,201 L216.733239,201 C216.879323,201 217,201.200692 217,201.435986 L217,202.564014 C217,202.799308 216.879323,203 216.733239,203 L208.260409,203 C208.114326,202.99308 208,202.799308 208,202.557093 Z" id="Path" fill="#757575"></path>
                <path d="M208,212.5625 L208,211.4375 C208,211.194444 208.120677,211 208.266761,211 L216.739591,211 C216.885674,211 217,211.194444 217,211.4375 L217,212.5625 C217,212.805556 216.885674,213 216.739591,213 L208.266761,213 C208.120677,213 208,212.805556 208,212.5625 Z" id="Path" fill="#757575"></path>
                <path d="M208,222.5625 L208,221.4375 C208,221.194444 208.114326,221 208.260409,221 L216.733239,221 C216.879323,221 217,221.194444 217,221.4375 L217,222.5625 C217,222.805556 216.879323,223 216.733239,223 L208.260409,223 C208.114326,223 208,222.805556 208,222.5625 Z" id="Path" fill="#757575"></path>
                <path d="M208,232.557093 L208,231.435986 C208,231.193772 208.120677,231 208.266761,231 L216.739591,231 C216.885674,231 217,231.200692 217,231.435986 L217,232.564014 C217,232.799308 216.885674,233 216.739591,233 L208.266761,233 C208.120677,232.99308 208,232.799308 208,232.557093 Z" id="Path" fill="#757575"></path>
                <path d="M208,242.5625 L208,241.4375 C208,241.194444 208.120677,241 208.260409,241 L216.733239,241 C216.879323,241 217,241.194444 217,241.4375 L217,242.5625 C217,242.805556 216.879323,243 216.733239,243 L208.266761,243 C208.120677,243 208,242.805556 208,242.5625 Z" id="Path" fill="#757575"></path>
                <path d="M208,252.5625 L208,251.4375 C208,251.194444 208.114407,251 208.260593,251 L216.739407,251 C216.885593,251 217,251.194444 217,251.4375 L217,252.5625 C217,252.805556 216.885593,253 216.739407,253 L208.260593,253 C208.114407,253 208,252.805556 208,252.5625 Z" id="Path" fill="#757575"></path>
                <path d="M208,262.557093 L208,261.435986 C208,261.193772 208.120677,261 208.266761,261 L216.733239,261 C216.879323,261 217,261.200692 217,261.435986 L217,262.564014 C217,262.799308 216.879323,263 216.739591,263 L208.266761,263 C208.120677,262.99308 208,262.799308 208,262.557093 Z" id="Path" fill="#757575"></path>
                <path d="M208,272.5625 L208,271.4375 C208,271.194444 208.114326,271 208.260409,271 L216.733239,271 C216.879323,271 217,271.194444 217,271.4375 L217,272.5625 C217,272.805556 216.879323,273 216.733239,273 L208.260409,273 C208.114326,273 208,272.805556 208,272.5625 Z" id="Path" fill="#757575"></path>
                <path d="M208,282.560662 L208,281.436985 C208,281.194216 208.120677,281 208.266761,281 L216.739591,281 C216.885674,281 217,281.194216 217,281.436985 L217,282.560662 C217,282.803431 216.885674,282.997647 216.739591,282.997647 L208.266761,282.997647 C208.120677,283.025392 208,282.803431 208,282.560662 Z" id="Path" fill="#757575"></path>
                <path d="M208,292.557093 L208,291.435986 C208,291.193772 208.114326,291 208.260409,291 L216.733239,291 C216.879323,291 217,291.200692 217,291.435986 L217,292.564014 C217,292.799308 216.879323,293 216.733239,293 L208.260409,293 C208.114326,292.99308 208,292.799308 208,292.557093 Z" id="Path" fill="#757575"></path>
                <path d="M208,302.561987 L208,301.437356 C208,301.194381 208.120677,301 208.266761,301 L216.739591,301 C216.885674,301 217,301.194381 217,301.437356 L217,302.561987 C217,302.804963 216.885674,302.999343 216.739591,302.999343 L208.266761,302.999343 C208.120677,303.013228 208,302.804963 208,302.561987 Z" id="Path" fill="#757575"></path>
                <path d="M181,297.430692 L181,298.562538 C181,298.798629 180.879323,299 180.733239,299 L172.260409,299 C172.114326,299 172,298.805573 172,298.562538 L172,297.437636 C172,297.194602 172.120677,297.000174 172.266761,297.000174 L180.739591,297.000174 C180.885674,296.993231 181,297.194602 181,297.430692 Z" id="Path" fill="#757575"></path>
                <path d="M181,287.442907 L181,288.564014 C181,288.806228 180.885593,289 180.739407,289 L172.260593,289 C172.114407,289 172,288.806228 172,288.564014 L172,287.442907 C172,287.200692 172.120763,287.00692 172.266949,287.00692 L180.752119,287 C180.879237,287 181,287.200692 181,287.442907 Z" id="Path" fill="#757575"></path>
                <path d="M181,277.442907 L181,278.564014 C181,278.806228 180.885593,279 180.739407,279 L172.260593,279 C172.114407,279 172,278.799308 172,278.564014 L172,277.435986 C172,277.200692 172.120763,277 172.266949,277 L180.739407,277 C180.879237,277.00692 181,277.200692 181,277.442907 Z" id="Path" fill="#757575"></path>
                <path d="M181,267.430556 L181,268.5625 C181,268.798611 180.885674,269 180.739591,269 L172.266761,269 C172.120677,269 172,268.805556 172,268.5625 L172,267.4375 C172,267.194444 172.120677,267 172.260409,267 L180.733239,267 C180.879323,267.006944 181,267.194444 181,267.430556 Z" id="Path" fill="#757575"></path>
                <path d="M181,257.4375 L181,258.5625 C181,258.805556 180.885674,259 180.739591,259 L172.266761,259 C172.120677,259 172,258.805556 172,258.5625 L172,257.4375 C172,257.194444 172.114326,257 172.260409,257 L180.733239,257 C180.879323,257 181,257.194444 181,257.4375 Z" id="Path" fill="#757575"></path>
                <path d="M181,247.442907 L181,248.564014 C181,248.806228 180.885674,249 180.739591,249 L172.266761,249 C172.120677,249 172,248.799308 172,248.564014 L172,247.435986 C172,247.200692 172.114326,247 172.260409,247 L180.733239,247 C180.879323,247.034602 181,247.200692 181,247.442907 Z" id="Path" fill="#757575"></path>
                <path d="M164.435986,235 L165.564014,235 C165.799308,235 166,235.120677 166,235.266761 L166,243.739591 C166,243.885674 165.799308,244 165.564014,244 L164.435986,244 C164.200692,244 164,243.885674 164,243.739591 L164,235.266761 C164,235.120677 164.200692,235 164.435986,235 Z" id="Path" fill="#757575"></path>
                <path d="M154.4375,235 L155.5625,235 C155.805556,235 156,235.120677 156,235.266761 L156,243.739591 C156,243.885674 155.805556,244 155.5625,244 L154.4375,244 C154.194444,244 154,243.885674 154,243.739591 L154,235.266761 C154,235.120677 154.194444,235 154.4375,235 Z" id="Path" fill="#757575"></path>
                <path d="M144.4375,235 L145.5625,235 C145.805556,235 146,235.120677 146,235.266761 L146,243.739591 C146,243.885674 145.805556,244 145.5625,244 L144.4375,244 C144.194444,244 144,243.885674 144,243.739591 L144,235.266761 C144,235.120677 144.194444,235 144.4375,235 Z" id="Path" fill="#757575"></path>
                <path d="M134.435986,235 L135.564014,235 C135.799308,235 136,235.120677 136,235.266761 L136,243.739591 C136,243.885674 135.799308,244 135.564014,244 L134.435986,244 C134.200692,244 134,243.885674 134,243.739591 L134,235.266761 C134,235.120677 134.200692,235 134.435986,235 Z" id="Path" fill="#757575"></path>
                <path d="M124.4375,235 L125.5625,235 C125.805556,235 126,235.120677 126,235.266761 L126,243.739591 C126,243.885674 125.805556,244 125.5625,244 L124.4375,244 C124.194444,244 124,243.885674 124,243.739591 L124,235.266761 C124,235.120677 124.194444,235 124.4375,235 Z" id="Path" fill="#757575"></path>
                <path d="M114.4375,235 L115.5625,235 C115.805556,235 116,235.120677 116,235.266761 L116,243.739591 C116,243.885674 115.805556,244 115.5625,244 L114.4375,244 C114.194444,244 114,243.885674 114,243.739591 L114,235.266761 C114,235.120677 114.194444,235 114.4375,235 Z" id="Path" fill="#757575"></path>
                <path d="M104.4375,235 L105.5625,235 C105.805556,235 106,235.120677 106,235.266761 L106,243.739591 C106,243.885674 105.805556,244 105.5625,244 L104.4375,244 C104.194444,244 104,243.885674 104,243.739591 L104,235.254058 C104,235.107975 104.194444,235 104.4375,235 Z" id="Path" fill="#757575"></path>
                <path d="M95.8315395,235.045232 L96.7208247,235.329185 C96.9113859,235.391654 97.032652,235.544989 96.99223,235.664249 L94.5900048,242.865296 C94.5495828,242.984557 94.3590217,243.035668 94.1684605,242.973199 L93.2791753,242.689246 C93.0886141,242.626776 92.967348,242.47912 93.00777,242.354181 L95.4099952,235.153134 C95.4504172,235.005478 95.6409783,234.954367 95.8315395,235.045232 Z" id="Path" fill="#757575"></path>
                <path d="M91.4034815,230.230947 L91.9201968,231.098602 C92.0296189,231.287223 92.0235399,231.494705 91.9201968,231.570154 L85.0144491,235.971301 C84.892869,236.046749 84.7104989,235.971301 84.6010768,235.770106 L84.0843616,234.902451 C83.9688605,234.71383 83.9749395,234.50006 84.0843616,234.424612 L90.9901093,230.023465 C91.1056104,229.954304 91.2879805,230.042327 91.4034815,230.230947 Z" id="Path" fill="#757575"></path>
                <path d="M90,222.4375 L90,223.5625 C90,223.805556 89.885674,224 89.7395907,224 L81.2667608,224 C81.1206775,224 81,223.805556 81,223.5625 L81,222.4375 C81,222.194444 81.1206775,222 81.2667608,222 L89.7395907,222 C89.9047283,222 90,222.194444 90,222.4375 Z" id="Path" fill="#757575"></path>
                <path d="M90,212.435986 L90,213.564014 C90,213.799308 89.885674,214 89.7395907,214 L81.2667608,214 C81.1206775,214 81,213.799308 81,213.564014 L81,212.435986 C81,212.200692 81.1206775,212 81.2667608,212 L89.7395907,212 C89.9047283,212 90,212.200692 90,212.435986 Z" id="Path" fill="#757575"></path>
                <path d="M90,202.4375 L90,203.5625 C90,203.805556 89.885674,204 89.7395907,204 L81.2667608,204 C81.1206775,204 81,203.805556 81,203.5625 L81,202.4375 C81,202.194444 81.1206775,202 81.2667608,202 L89.7395907,202 C89.9047283,202 90,202.194444 90,202.4375 Z" id="Path" fill="#757575"></path>
                <path d="M90,192.4375 L90,193.5625 C90,193.805556 89.885674,194 89.7395907,194 L81.2667608,194 C81.1206775,194 81,193.805556 81,193.5625 L81,192.4375 C81,192.194444 81.1206775,192 81.2667608,192 L89.7395907,192 C89.9047283,192 90,192.194444 90,192.4375 Z" id="Path" fill="#757575"></path>
                <path d="M90,182.435986 L90,183.564014 C90,183.799308 89.885674,184 89.7395907,184 L81.2667608,184 C81.1206775,184 81,183.799308 81,183.564014 L81,182.435986 C81,182.200692 81.1206775,182 81.2667608,182 L89.7395907,182 C89.9047283,182 90,182.200692 90,182.435986 Z" id="Path" fill="#757575"></path>
                <path d="M90,173.4375 L90,174.5625 C90,174.805556 89.885674,175 89.7395907,175 L81.2667608,175 C81.1206775,175 81,174.805556 81,174.5625 L81,173.4375 C81,173.194444 81.1206775,173 81.2667608,173 L89.7395907,173 C89.9047283,173 90,173.194444 90,173.4375 Z" id="Path" fill="#757575"></path>
                <path d="M90,163.4375 L90,164.5625 C90,164.805556 89.885674,165 89.7395907,165 L81.2667608,165 C81.1206775,165 81,164.805556 81,164.5625 L81,163.4375 C81,163.194444 81.1206775,163 81.2667608,163 L89.7395907,163 C89.9047283,163 90,163.194444 90,163.4375 Z" id="Path" fill="#757575"></path>
                <path d="M90,153.436483 L90,154.564152 C90,154.799372 89.885674,155 89.7395907,155 L81.2667608,155 C81.1206775,155 81,154.799372 81,154.564152 L81,153.436483 C81,153.201263 81.1206775,153.000635 81.2667608,153.000635 L89.7395907,153.000635 C89.9047283,152.986798 90,153.201263 90,153.436483 Z" id="Path" fill="#757575"></path>
                <path d="M90,143.4375 L90,144.5625 C90,144.805556 89.885674,145 89.7395907,145 L81.2667608,145 C81.1206775,145 81,144.805556 81,144.5625 L81,143.4375 C81,143.194444 81.1206775,143 81.2667608,143 L89.7395907,143 C89.9047283,143 90,143.194444 90,143.4375 Z" id="Path" fill="#757575"></path>
                <path d="M92.8849263,136.085776 L92.2509111,136.822553 C92.1177679,136.982474 91.9148831,137.0453 91.8007603,136.965339 L85.0801998,132.344773 C84.9597369,132.264813 84.9787573,132.070624 85.1119005,131.910703 L85.7459157,131.173925 C85.8790589,131.019716 86.0819437,130.95689 86.2024066,131.031139 L92.9229672,135.657417 C93.0370899,135.737377 93.0244096,135.931566 92.8849263,136.085776 Z" id="Path" fill="#757575"></path>
                <path d="M97.7157409,133.765772 L96.8701618,133.981272 C96.6893462,134.031978 96.5244848,133.981272 96.4978943,133.810139 L95.0035061,125.570408 C94.9769155,125.430967 95.1045501,125.278848 95.2853658,125.228142 L96.1309449,125.012642 C96.3117605,124.968274 96.4766219,125.044333 96.5032124,125.183775 L97.9976006,133.455197 C98.0188731,133.569286 97.8965566,133.721404 97.7157409,133.765772 Z" id="Path" fill="#757575"></path>
                <path d="M107.5625,134 L106.4375,134 C106.194444,134 106,133.885674 106,133.739591 L106,125.266761 C106,125.120677 106.194444,125 106.4375,125 L107.5625,125 C107.805556,125 108,125.120677 108,125.266761 L108,133.739591 C108,133.885674 107.784722,134 107.5625,134 Z" id="Path" fill="#757575"></path>
                <path d="M631.939578,142.852758 L632,316.596463 L595.831676,317 L595.686664,239.611264 L528.534183,239.611264 C528.131373,239.647402 527.738633,239.665471 527.355964,239.665471 L518.89695,239.665471 C511.231517,239.642321 505.023224,233.45377 505,225.812712 L505,142.852758 C505.023224,135.211701 511.231517,129.02315 518.89695,129 L527.355964,129 C535.021397,129.02315 541.22969,135.211701 541.252914,142.852758 L541.252914,203.461588 L595.686664,203.461588 L595.686664,142.852758 C595.709888,135.211701 601.918181,129.02315 609.583615,129 L618.042628,129 C625.708062,129.02315 631.916355,135.211701 631.939578,142.852758 Z" id="Path" stroke="#757575" stroke-width="2" fill="#92DD8A"></path>
                <path d="M113.952667,135.893597 L113.188154,135.268672 C113.024747,135.143687 112.954716,134.943711 113.030583,134.831225 L117.605985,128.082038 C117.687689,127.969552 117.880276,127.975801 118.043683,128.082038 L118.814031,128.675717 C118.977438,128.806951 119.04747,129.000677 118.965767,129.119413 L114.407873,135.943591 C114.326169,136.03108 114.127746,136.018582 113.952667,135.893597 Z" id="Path" fill="#757575"></path>
                <path d="M117.258584,141.648009 L117.018742,140.587858 C116.968249,140.359724 117.018742,140.14501 117.182845,140.111461 L125.387965,138.004578 C125.533132,137.971029 125.684611,138.125355 125.735104,138.353488 L125.981258,139.41364 C126.031751,139.635064 125.981258,139.849778 125.817155,139.890037 L117.612035,141.990209 C117.466868,142.043888 117.315389,141.869433 117.258584,141.648009 Z" id="Path" fill="#757575"></path>
                <path d="M118,150.5625 L118,149.4375 C118,149.194444 118.120677,149 118.266761,149 L126.739591,149 C126.885674,149 127,149.194444 127,149.4375 L127,150.5625 C127,150.805556 126.885674,151 126.739591,151 L118.254058,151 C118.107975,151 118,150.805556 118,150.5625 Z" id="Path" fill="#757575"></path>
                <path d="M118,159.564014 L118,158.435986 C118,158.200692 118.120677,158 118.266761,158 L126.739591,158 C126.885674,158 127,158.200692 127,158.435986 L127,159.564014 C127,159.799308 126.885674,160 126.739591,160 L118.254058,160 C118.107975,160 118,159.799308 118,159.564014 Z" id="Path" fill="#757575"></path>
                <path d="M118,169.5625 L118,168.4375 C118,168.194444 118.120677,168 118.266761,168 L126.739591,168 C126.885674,168 127,168.194444 127,168.4375 L127,169.5625 C127,169.805556 126.885674,170 126.739591,170 L118.254058,170 C118.107975,169.979167 118,169.805556 118,169.5625 Z" id="Path" fill="#757575"></path>
                <path d="M118,179.5625 L118,178.4375 C118,178.194444 118.120677,178 118.266761,178 L126.739591,178 C126.885674,178 127,178.194444 127,178.4375 L127,179.5625 C127,179.805556 126.885674,180 126.739591,180 L118.254058,180 C118.107975,180 118,179.805556 118,179.5625 Z" id="Path" fill="#757575"></path>
                <path d="M118,189.564014 L118,188.435986 C118,188.200692 118.120677,188 118.266761,188 L126.739591,188 C126.885674,188 127,188.200692 127,188.435986 L127,189.564014 C127,189.799308 126.885674,190 126.739591,190 L118.254058,190 C118.107975,190 118,189.799308 118,189.564014 Z" id="Path" fill="#757575"></path>
                <path d="M128.5625,208 L127.4375,208 C127.194444,208 127,207.885674 127,207.739591 L127,199.266761 C127,199.120677 127.194444,199 127.4375,199 L128.5625,199 C128.805556,199 129,199.120677 129,199.266761 L129,207.739591 C129,207.885674 128.805556,208 128.5625,208 Z" id="Path" fill="#757575"></path>
                <path d="M138.564014,208 L137.435986,208 C137.200692,208 137,207.885674 137,207.739591 L137,199.266761 C137,199.120677 137.200692,199 137.435986,199 L138.564014,199 C138.799308,199 139,199.120677 139,199.266761 L139,207.739591 C139,207.885674 138.799308,208 138.564014,208 Z" id="Path" fill="#757575"></path>
                <path d="M148.527778,208 L147.4375,208 C147.194444,208 147,207.885674 147,207.739591 L147,199.266761 C147,199.120677 147.194444,199 147.4375,199 L148.5625,199 C148.805556,199 149,199.120677 149,199.266761 L149,207.739591 C148.965278,207.885674 148.770833,208 148.527778,208 Z" id="Path" fill="#757575"></path>
                <path d="M158.5625,208 L157.4375,208 C157.194444,208 157,207.885674 157,207.739591 L157,199.266761 C157,199.120677 157.194444,199 157.4375,199 L158.5625,199 C158.805556,199 159,199.120677 159,199.266761 L159,207.739591 C159,207.885674 158.805556,208 158.5625,208 Z" id="Path" fill="#757575"></path>
                <path d="M168.543253,208 L167.435986,208 C167.200692,208 167,207.885674 167,207.739591 L167,199.266761 C167,199.120677 167.200692,199 167.435986,199 L168.564014,199 C168.799308,199 169,199.120677 169,199.266761 L169,207.739591 C168.979239,207.885674 168.778547,208 168.543253,208 Z" id="Path" fill="#757575"></path>
                <path d="M181,191.4375 L181,192.5625 C181,192.805556 180.885674,193 180.739591,193 L172.266761,193 C172.120677,193 172,192.805556 172,192.5625 L172,191.4375 C172,191.194444 172.120677,191 172.266761,191 L180.739591,191 C180.885674,191 181,191.194444 181,191.4375 Z" id="Path" fill="#757575"></path>
                <path d="M181,181.4375 L181,182.5625 C181,182.805556 180.885674,183 180.739591,183 L172.266761,183 C172.120677,183 172,182.805556 172,182.5625 L172,181.4375 C172,181.194444 172.120677,181 172.266761,181 L180.739591,181 C180.885674,181 181,181.194444 181,181.4375 Z" id="Path" fill="#757575"></path>
                <path d="M181,171.4375 L181,172.5625 C181,172.805556 180.885674,173 180.739591,173 L172.266761,173 C172.120677,173 172,172.805556 172,172.5625 L172,171.4375 C172,171.194444 172.120677,171 172.266761,171 L180.739591,171 C180.885674,171 181,171.194444 181,171.4375 Z" id="Path" fill="#757575"></path>
                <path d="M181,161.438694 L181,162.569773 C181,162.805704 180.885674,163 180.739591,163 L172.266761,163 C172.120677,163 172,162.805704 172,162.569773 L172,161.438694 C172,161.195824 172.120677,161.001528 172.266761,161.001528 L180.739591,161.001528 C180.885674,160.98071 181,161.175006 181,161.438694 Z" id="Path" fill="#757575"></path>
                <path d="M181,151.4375 L181,152.5625 C181,152.805556 180.885674,153 180.739591,153 L172.266761,153 C172.120677,153 172,152.805556 172,152.5625 L172,151.4375 C172,151.194444 172.120677,151 172.266761,151 L180.739591,151 C180.885674,151 181,151.194444 181,151.4375 Z" id="Path" fill="#757575"></path>
                <path d="M180.999749,141.608759 L180.999749,142.614808 C180.999749,142.832164 180.866751,143.006049 180.721087,142.999839 L172.25358,142.788693 C172.107916,142.788693 171.993918,142.608597 172.000252,142.391241 L172.000252,141.385192 C172.000252,141.167836 172.133249,140.993951 172.278913,141.000161 L180.721087,141.211307 C180.892084,141.217518 181.006082,141.391403 180.999749,141.608759 Z" id="Path" fill="#757575"></path>
                <path d="M183.86563,136.093597 L183.222175,136.838566 C183.087634,136.993768 182.894597,137.049641 182.795154,136.950312 L177.056699,131.363042 C176.957256,131.269921 176.992354,131.058847 177.132744,130.903645 L177.77035,130.158676 C177.91074,130.003474 178.103777,129.953809 178.20322,130.04693 L183.941675,135.6342 C184.041118,135.714905 184.01187,135.919771 183.86563,136.093597 Z" id="Path" fill="#757575"></path>
                <path d="M189.60134,133.880252 L188.499194,134 C188.259596,134 188.054227,133.92437 188.040536,133.785714 L187,125.422269 C187,125.277311 187.164295,125.144958 187.397047,125.119748 L188.506039,125 C188.738791,125 188.94416,125.07563 188.964697,125.220588 L189.998387,133.571429 C190.018924,133.722689 189.840938,133.855042 189.60134,133.880252 Z" id="Path" fill="#757575"></path>
                <path d="M200,125.266761 L200,133.739591 C200,133.885674 199.805556,134 199.5625,134 L198.4375,134 C198.194444,134 198,133.885674 198,133.739591 L198,125.266761 C198,125.120677 198.194444,125 198.4375,125 L199.583333,125 C199.805556,125 200,125.120677 200,125.266761 Z" id="Path" fill="#757575"></path>
                <path d="M207.128976,138.093597 L207.772905,138.838566 C207.907545,138.993768 208.100724,139.049641 208.20024,138.950312 L213.942918,133.363042 C214.042435,133.269921 214.007311,133.058847 213.872672,132.903645 L213.228742,132.158676 C213.088249,132.003474 212.900924,131.953809 212.801407,132.04693 L207.058729,137.6342 C206.959213,137.733529 206.988483,137.919771 207.128976,138.093597 Z" id="Path" fill="#757575"></path>
                <path d="M525,239 L518.201695,239 C516.831758,238.915386 515.483828,238.611623 514.208286,238.100066 C511.430234,236.952219 509.113864,234.896717 507.629856,232.262494 C506.527105,230.23033 505.966034,227.943854 506.001591,225.626982 L506.001591,143.277026 C505.958788,139.782131 507.29953,136.414561 509.726217,133.9218 C512.152905,131.429038 515.464769,130.017321 518.926689,130 L524.625618,130 L525,239 Z" id="Path" fill="#7BC679"></path>
                <path d="M635.733239,144 L627.260409,144 C627.114326,144 627,143.805556 627,143.5625 L627,142.4375 C627,142.194444 627.114326,142 627.260409,142 L635.733239,142 C635.879323,142 636,142.194444 636,142.4375 L636,143.5625 C635.980946,143.805556 635.879323,144 635.733239,144 Z" id="Path" fill="#757575"></path>
                <path d="M627,153.5625 L627,152.4375 C627,152.194444 627.120677,152 627.266761,152 L635.739591,152 C635.885674,152 636,152.194444 636,152.430556 L636,153.5625 C636,153.805556 635.885674,154 635.739591,154 L627.266761,154 C627.120677,154 627,153.805556 627,153.5625 Z" id="Path" fill="#757575"></path>
                <path d="M627,163.569308 L627,162.437462 C627,162.201371 627.114326,162 627.260409,162 L635.733239,162 C635.879323,162 636,162.194427 636,162.437462 L636,163.562364 C636,163.805398 635.879323,163.999826 635.733239,163.999826 L627.260409,163.999826 C627.114326,164.006769 627,163.805398 627,163.569308 Z" id="Path" fill="#757575"></path>
                <path d="M627,173.561409 L627,172.437195 C627,172.194309 627.120677,172 627.266761,172 L635.739591,172 C635.885674,172 636,172.194309 636,172.437195 L636,173.561409 C636,173.804295 635.885674,173.998604 635.739591,173.998604 L627.266761,173.998604 C627.120677,174.019423 627,173.804295 627,173.561409 Z" id="Path" fill="#757575"></path>
                <path d="M627,183.5625 L627,182.4375 C627,182.194444 627.114326,182 627.260409,182 L635.733239,182 C635.879323,182 636,182.194444 636,182.430556 L636,183.5625 C636,183.805556 635.879323,184 635.733239,184 L627.266761,184 C627.120677,184 627,183.805556 627,183.5625 Z" id="Path" fill="#757575"></path>
                <path d="M627,193.569308 L627,192.437462 C627,192.201371 627.114407,192 627.260593,192 L635.739407,192 C635.885593,192 636,192.194427 636,192.437462 L636,193.562364 C636,193.805398 635.885593,193.999826 635.739407,193.999826 L627.260593,193.999826 C627.114407,194.006769 627,193.805398 627,193.569308 Z" id="Path" fill="#757575"></path>
                <path d="M627,203.5625 L627,202.4375 C627,202.194444 627.120677,202 627.266761,202 L635.733239,202 C635.879323,202 636,202.194444 636,202.4375 L636,203.5625 C636,203.805556 635.879323,204 635.739591,204 L627.266761,204 C627.120677,204 627,203.805556 627,203.5625 Z" id="Path" fill="#757575"></path>
                <path d="M627,213.5625 L627,212.4375 C627,212.194444 627.114326,212 627.260409,212 L635.733239,212 C635.879323,212 636,212.194444 636,212.430556 L636,213.5625 C636,213.805556 635.879323,214 635.733239,214 L627.260409,214 C627.114326,213.986111 627,213.805556 627,213.5625 Z" id="Path" fill="#757575"></path>
                <path d="M627,223.569308 L627,222.437462 C627,222.201371 627.120677,222 627.266761,222 L635.739591,222 C635.879323,222 636,222.194427 636,222.437462 L636,223.562364 C636,223.805398 635.885674,223.999826 635.739591,223.999826 L627.266761,223.999826 C627.120677,224.006769 627,223.805398 627,223.569308 Z" id="Path" fill="#757575"></path>
                <path d="M627,233.5625 L627,232.4375 C627,232.194444 627.114326,232 627.260409,232 L635.733239,232 C635.879323,232 636,232.194444 636,232.4375 L636,233.5625 C636,233.805556 635.879323,234 635.733239,234 L627.260409,234 C627.114326,234 627,233.805556 627,233.5625 Z" id="Path" fill="#757575"></path>
                <path d="M627,242.557093 L627,241.435986 C627,241.193772 627.120677,241 627.266761,241 L635.739591,241 C635.885674,241 636,241.200692 636,241.435986 L636,242.564014 C636,242.806228 635.885674,243 635.739591,243 L627.266761,243 C627.120677,242.99308 627,242.799308 627,242.557093 Z" id="Path" fill="#757575"></path>
                <path d="M627,252.569308 L627,251.437462 C627,251.201371 627.114326,251 627.260409,251 L635.733239,251 C635.879323,251 636,251.194427 636,251.437462 L636,252.562364 C636,252.805398 635.879323,252.999826 635.733239,252.999826 L627.260409,252.999826 C627.120677,253.006769 627,252.805398 627,252.569308 Z" id="Path" fill="#757575"></path>
                <path d="M627,262.5625 L627,261.4375 C627,261.194444 627.120677,261 627.266761,261 L635.739591,261 C635.885674,261 636,261.194444 636,261.4375 L636,262.5625 C636,262.805556 635.885674,263 635.739591,263 L627.266761,263 C627.114326,262.972222 627,262.777778 627,262.5625 Z" id="Path" fill="#757575"></path>
                <path d="M627,272.557093 L627,271.435986 C627,271.193772 627.120677,271 627.266761,271 L635.733239,271 C635.879323,271 636,271.200692 636,271.435986 L636,272.564014 C636,272.806228 635.879323,273 635.739591,273 L627.266761,273 C627.120677,272.99308 627,272.799308 627,272.557093 Z" id="Path" fill="#757575"></path>
                <path d="M627,282.564014 L627,281.435986 C627,281.200692 627.114326,281 627.260409,281 L635.733239,281 C635.879323,281 635.993649,281.193772 636,281.435986 L636,282.564014 C636,282.806228 635.879323,283 635.733239,283 L627.260409,283 C627.114326,282.99308 627,282.792388 627,282.564014 Z" id="Path" fill="#757575"></path>
                <path d="M627,292.5625 L627,291.4375 C627,291.194444 627.120677,291 627.266761,291 L635.739591,291 C635.879323,291 636,291.194444 636,291.4375 L636,292.5625 C636,292.805556 635.885674,293 635.739591,293 L627.266761,293 C627.120677,293 627,292.805556 627,292.5625 Z" id="Path" fill="#757575"></path>
                <path d="M627,302.562359 L627,301.437461 C627,301.194427 627.114326,301 627.260409,301 L635.733239,301 C635.879323,301 636,301.201371 636,301.437461 L636,302.562359 C636,302.805393 635.879323,302.99982 635.733239,302.99982 L627.260409,302.99982 C627.082569,303.006763 627,302.812337 627,302.562359 Z" id="Path" fill="#757575"></path>
                <path d="M600,297.4375 L600,298.5625 C600,298.805556 599.885674,299 599.739591,299 L591.266761,299 C591.120677,299 591,298.805556 591,298.5625 L591,297.4375 C591,297.194444 591.114326,297 591.260409,297 L599.733239,297 C599.86662,297 600,297.194444 600,297.4375 Z" id="Path" fill="#757575"></path>
                <path d="M600,287.442907 L600,288.564014 C600,288.806228 599.879323,289 599.739591,289 L591.266761,289 C591.120677,289 591,288.806228 591,288.564014 L591,287.435986 C591,287.200692 591.114326,287 591.260409,287 L599.733239,287 C599.885674,287.00692 600,287.235294 600,287.442907 Z" id="Path" fill="#757575"></path>
                <path d="M600,277.430556 L600,278.5625 C600,278.805556 599.879323,279 599.733239,279 L591.266761,279 C591.120677,279 591,278.805556 591,278.5625 L591,277.4375 C591,277.194444 591.114326,277 591.260409,277 L599.733239,277 C599.91108,277 600,277.194444 600,277.430556 Z" id="Path" fill="#757575"></path>
                <path d="M600,267.422274 L600,268.558237 C600,268.803661 599.879323,269 599.733239,269 L591.260409,269 C591.114326,269 591,268.803661 591,268.558237 L591,267.44331 C591,267.197886 591.120677,267.001546 591.266761,267.001546 L599.739591,267.001546 C599.885674,266.98051 600,267.176849 600,267.422274 Z" id="Path" fill="#757575"></path>
                <path d="M600,257.442907 L600,258.564014 C600,258.806228 599.879323,259 599.733239,259 L591.260409,259 C591.114326,259 591,258.806228 591,258.564014 L591,257.435986 C591,257.200692 591.120677,257 591.266761,257 L599.739591,257 C599.885674,257.00692 600,257.200692 600,257.442907 Z" id="Path" fill="#757575"></path>
                <path d="M600,247.430556 L600,248.5625 C600,248.805556 599.885593,249 599.739407,249 L591.260593,249 C591.114407,249 591,248.805556 591,248.5625 L591,247.4375 C591,247.194444 591.120763,247 591.266949,247 L599.745763,247 C599.879237,247 600,247.194444 600,247.430556 Z" id="Path" fill="#757575"></path>
                <path d="M583.4375,235 L584.5625,235 C584.805556,235 585,235.120677 585,235.266761 L585,243.733239 C585,243.879323 584.805556,244 584.5625,244 L583.4375,244 C583.194444,244 583,243.879323 583,243.733239 L583,235.285815 C583,235.120677 583.194444,235 583.4375,235 Z" id="Path" fill="#757575"></path>
                <path d="M573.435986,235 L574.564014,235 C574.799308,235 575,235.120677 575,235.266761 L575,243.733239 C575,243.879323 574.799308,244 574.564014,244 L573.435986,244 C573.200692,244 573,243.879323 573,243.733239 L573,235.285815 C573.013841,235.120677 573.214533,235 573.435986,235 Z" id="Path" fill="#757575"></path>
                <path d="M563.4375,235 L564.5625,235 C564.805556,235 565,235.120677 565,235.266761 L565,243.733239 C565,243.879323 564.805556,244 564.5625,244 L563.4375,244 C563.194444,244 563,243.879323 563,243.733239 L563,235.285815 C563,235.120677 563.194444,235 563.4375,235 Z" id="Path" fill="#757575"></path>
                <path d="M553.4375,235 L554.5625,235 C554.805556,235 555,235.120677 555,235.266761 L555,243.733239 C555,243.879323 554.805556,244 554.5625,244 L553.4375,244 C553.194444,244 553,243.879323 553,243.733239 L553,235.285815 C553,235.120677 553.194444,235 553.4375,235 Z" id="Path" fill="#757575"></path>
                <path d="M543.435986,235 L544.564014,235 C544.799308,235 545,235.120677 545,235.266761 L545,243.733239 C545,243.879323 544.799308,244 544.564014,244 L543.435986,244 C543.200692,244 543,243.879323 543,243.733239 L543,235.285815 C543,235.120677 543.200692,235 543.435986,235 Z" id="Path" fill="#757575"></path>
                <path d="M533.438694,235 L534.562834,235 C534.805704,235 535,235.120677 535,235.266761 L535,243.733239 C535,243.879323 534.805704,244 534.562834,244 L533.438694,244 C533.195824,244 533.001528,243.879323 533.001528,243.733239 L533.001528,235.285815 C532.98071,235.120677 533.175006,235 533.438694,235 Z" id="Path" fill="#757575"></path>
                <path d="M523.4375,235 L524.5625,235 C524.805556,235 525,235.120677 525,235.266761 L525,243.733239 C525,243.879323 524.805556,244 524.5625,244 L523.4375,244 C523.194444,244 523,243.879323 523,243.733239 L523,235.266761 C523,235.120677 523.194444,235 523.4375,235 Z" id="Path" fill="#757575"></path>
                <path d="M514.831766,235.024221 L515.725075,235.314416 C515.915264,235.377007 516.036293,235.524949 515.990187,235.650131 L513.586896,242.859485 C513.546553,242.984667 513.362127,243.035878 513.166176,242.973287 L512.278629,242.688782 C512.088441,242.626191 511.967412,242.472558 512.007755,242.353066 L514.411046,235.138023 C514.457152,235.01284 514.641577,234.96732 514.831766,235.024221 Z" id="Path" fill="#757575"></path>
                <path d="M510.403595,230.228009 L510.920212,231.101444 C511.029613,231.283672 511.023535,231.497318 510.920212,231.572722 L504.009699,235.971318 C503.89422,236.046722 503.705806,235.971318 503.596405,235.770239 L503.079788,234.896804 C502.970387,234.714576 502.976465,234.50093 503.079788,234.425526 L509.990301,230.02693 C510.10578,229.951526 510.294194,230.039498 510.403595,230.228009 Z" id="Path" fill="#757575"></path>
                <path d="M509,223.4375 L509,224.5625 C509,224.805556 508.879323,225 508.733239,225 L500.260409,225 C500.114326,225 500,224.805556 500,224.5625 L500,223.4375 C500,223.194444 500.114326,223 500.260409,223 L508.733239,223 C508.879323,223 509,223.194444 509,223.4375 Z" id="Path" fill="#757575"></path>
                <path d="M509,213.444444 L509,214.5625 C509,214.805556 508.879323,215 508.733239,215 L500.260409,215 C500.114326,215 500,214.805556 500,214.5625 L500,213.4375 C500,213.194444 500.114326,213 500.260409,213 L508.733239,213 C508.879323,213.006944 509,213.173611 509,213.444444 Z" id="Path" fill="#757575"></path>
                <path d="M509,203.4375 L509,204.5625 C509,204.805556 508.879323,205 508.733239,205 L500.260409,205 C500.114326,205 500,204.805556 500,204.5625 L500,203.4375 C500,203.194444 500.114326,203 500.260409,203 L508.733239,203 C508.879323,203 509,203.194444 509,203.4375 Z" id="Path" fill="#757575"></path>
                <path d="M509,193.430707 L509,194.562542 C509,194.805574 508.879323,195 508.733239,195 L500.260409,195 C500.114326,195 500,194.805574 500,194.562542 L500,193.437651 C500,193.194619 500.114326,193.000194 500.260409,193.000194 L508.733239,193.000194 C508.879323,192.99325 509,193.173788 509,193.430707 Z" id="Path" fill="#757575"></path>
                <path d="M509,183.4375 L509,184.5625 C509,184.805556 508.879323,185 508.733239,185 L500.260409,185 C500.114326,185 500,184.805556 500,184.5625 L500,183.4375 C500,183.194444 500.114326,183 500.260409,183 L508.733239,183 C508.879323,183 509,183.194444 509,183.4375 Z" id="Path" fill="#757575"></path>
                <ellipse id="Oval" stroke="#757575" stroke-width="2" fill="#92DD8A" cx="358.5" cy="223" rx="91.5" ry="91"></ellipse>
                <path d="M509,173.411763 L509,174.563062 C509,174.805805 508.879323,175 508.733239,175 L500.260409,175 C500.114326,175 500,174.805805 500,174.563062 L500,173.439505 C500,173.196762 500.114326,173.002567 500.260409,173.002567 L508.733239,173.002567 C508.879323,172.974825 509,173.175955 509,173.411763 Z" id="Path" fill="#757575"></path>
                <path d="M509,163.4375 L509,164.5625 C509,164.805556 508.879323,165 508.733239,165 L500.260409,165 C500.114326,165 500,164.805556 500,164.5625 L500,163.4375 C500,163.194444 500.114326,163 500.260409,163 L508.733239,163 C508.879323,163 509,163.194444 509,163.4375 Z" id="Path" fill="#757575"></path>
                <path d="M509,153.4375 L509,154.5625 C509,154.805556 508.879323,155 508.733239,155 L500.260409,155 C500.114326,155 500,154.805556 500,154.5625 L500,153.4375 C500,153.194444 500.114326,153 500.260409,153 L508.733239,153 C508.879323,153 509,153.222222 509,153.4375 Z" id="Path" fill="#757575"></path>
                <path d="M509,143.4375 L509,144.5625 C509,144.805556 508.879323,145 508.733239,145 L500.260409,145 C500.114326,145 500,144.805556 500,144.5625 L500,143.4375 C500,143.194444 500.114326,143 500.260409,143 L508.733239,143 C508.879323,143 509,143.194444 509,143.4375 Z" id="Path" fill="#757575"></path>
                <path d="M511.890565,137.086312 L511.255889,137.822657 C511.122607,137.982484 510.91951,138.045273 510.805269,137.96536 L504.077701,133.341796 C503.96346,133.261882 503.976153,133.073515 504.109435,132.913688 L504.744111,132.177343 C504.877393,132.017516 505.08049,131.954727 505.194731,132.03464 L511.922299,136.658204 C512.03654,136.738118 512.023847,136.926485 511.890565,137.086312 Z" id="Path" fill="#757575"></path>
                <path d="M516.714233,133.765772 L515.867465,133.981272 C515.686395,134.031978 515.521302,133.981272 515.494674,133.810139 L514.003511,125.570408 C513.976883,125.424628 514.104697,125.27251 514.285767,125.228142 L515.127209,125.012642 C515.308279,124.968274 515.478698,125.044333 515.5,125.183775 L516.996489,133.423506 C517.023117,133.569286 516.895303,133.721404 516.714233,133.765772 Z" id="Path" fill="#757575"></path>
                <path d="M526.564014,134 L525.435986,134 C525.200692,134 525,133.879323 525,133.733239 L525,125.266761 C525,125.120677 525.200692,125 525.435986,125 L526.564014,125 C526.806228,125 527,125.120677 527,125.266761 L527,133.733239 C527,133.879323 526.806228,134 526.564014,134 Z" id="Path" fill="#757575"></path>
                <path d="M532.956317,135.898751 L532.185969,135.302324 C532.022562,135.17676 531.95253,134.975858 532.034233,134.862851 L536.603799,128.082418 C536.685503,127.969411 536.883926,127.975689 537.047333,128.082418 L537.811846,128.678845 C537.975253,128.804408 538.045284,129.00531 537.969417,129.124596 L533.394015,135.898751 C533.312311,136.036871 533.119724,136.030592 532.956317,135.898751 Z" id="Path" fill="#757575"></path>
                <path d="M536.261632,141.64605 L536.021527,140.591234 C535.96466,140.362803 536.021527,140.147809 536.179491,140.114216 L544.393612,138.004584 C544.53262,137.970991 544.690584,138.125518 544.741132,138.35395 L544.981237,139.408766 C545.031786,139.637197 544.981237,139.852191 544.816955,139.885784 L536.602834,141.995416 C536.470144,142.029009 536.31218,141.874482 536.261632,141.64605 Z" id="Path" fill="#757575"></path>
                <path d="M537,150.561306 L537,149.437166 C537,149.194296 537.114326,149 537.260409,149 L545.733239,149 C545.879323,149 546,149.194296 546,149.437166 L546,150.561306 C546,150.804176 545.879323,150.998472 545.733239,150.998472 L537.260409,150.998472 C537.146083,151.01929 537,150.824994 537,150.561306 Z" id="Path" fill="#757575"></path>
                <path d="M537,160.5625 L537,159.4375 C537,159.194444 537.114326,159 537.260409,159 L545.733239,159 C545.879323,159 546,159.194444 546,159.4375 L546,160.5625 C546,160.805556 545.879323,161 545.733239,161 L537.260409,161 C537.146083,161 537,160.805556 537,160.5625 Z" id="Path" fill="#757575"></path>
                <path d="M537,170.564014 L537,169.435986 C537,169.200692 537.114326,169 537.260409,169 L545.733239,169 C545.879323,169 546,169.200692 546,169.435986 L546,170.564014 C546,170.806228 545.879323,171 545.733239,171 L537.260409,171 C537.146083,171 537,170.806228 537,170.564014 Z" id="Path" fill="#757575"></path>
                <path d="M537,180.527778 L537,179.4375 C537,179.194444 537.114326,179 537.260409,179 L545.733239,179 C545.879323,179 546,179.194444 546,179.4375 L546,180.5625 C546,180.805556 545.879323,181 545.733239,181 L537.260409,181 C537.146083,180.965278 537,180.770833 537,180.527778 Z" id="Path" fill="#757575"></path>
                <path d="M537,190.5625 L537,189.4375 C537,189.194444 537.114326,189 537.260409,189 L545.733239,189 C545.879323,189 546,189.194444 546,189.4375 L546,190.5625 C546,190.805556 545.879323,191 545.733239,191 L537.260409,191 C537.146083,191 537,190.805556 537,190.5625 Z" id="Path" fill="#757575"></path>
                <path d="M547.562229,208 L546.435489,208 C546.200463,208 546,207.892504 546,207.762376 L546,200.237624 C546,200.107496 546.200463,200 546.435489,200 L547.562229,200 C547.797254,200 547.997717,200.107496 547.997717,200.237624 L547.997717,207.762376 C548.025367,207.892504 547.797254,208 547.562229,208 Z" id="Path" fill="#757575"></path>
                <path d="M557.5625,208 L556.4375,208 C556.194444,208 556,207.892504 556,207.762376 L556,200.237624 C556,200.107496 556.194444,200 556.4375,200 L557.5625,200 C557.805556,200 558,200.107496 558,200.237624 L558,207.762376 C558,207.892504 557.805556,208 557.5625,208 Z" id="Path" fill="#757575"></path>
                <path d="M567.561987,208 L566.437356,208 C566.194381,208 566,207.892504 566,207.762376 L566,200.237624 C566,200.107496 566.194381,200 566.437356,200 L567.561987,200 C567.804963,200 567.999343,200.107496 567.999343,200.237624 L567.999343,207.762376 C568.013228,207.892504 567.804963,208 567.561987,208 Z" id="Path" fill="#757575"></path>
                <path d="M577.564014,208 L576.435986,208 C576.200692,208 576,207.892504 576,207.762376 L576,200.237624 C576,200.107496 576.200692,200 576.435986,200 L577.564014,200 C577.799308,200 578,200.107496 578,200.237624 L578,207.762376 C578,207.892504 577.799308,208 577.564014,208 Z" id="Path" fill="#757575"></path>
                <path d="M587.5625,208 L586.4375,208 C586.194444,208 586,207.892504 586,207.762376 L586,200.237624 C586,200.107496 586.194444,200 586.4375,200 L587.5625,200 C587.805556,200 588,200.107496 588,200.237624 L588,207.762376 C587.993056,207.892504 587.805556,208 587.5625,208 Z" id="Path" fill="#757575"></path>
                <path d="M600,191.4375 L600,192.5625 C600,192.805556 599.879323,193 599.733239,193 L591.260409,193 C591.114326,193 591,192.805556 591,192.5625 L591,191.4375 C591,191.194444 591.114326,191 591.260409,191 L599.733239,191 C599.898377,191 600,191.194444 600,191.4375 Z" id="Path" fill="#757575"></path>
                <path d="M600,182.438591 L600,183.562805 C600,183.805691 599.879323,184 599.733239,184 L591.260409,184 C591.114326,184 591,183.805691 591,183.562805 L591,182.438591 C591,182.195705 591.114326,182.001396 591.260409,182.001396 L599.733239,182.001396 C599.898377,181.980577 600,182.195705 600,182.438591 Z" id="Path" fill="#757575"></path>
                <path d="M600,172.435986 L600,173.564014 C600,173.799308 599.879323,174 599.733239,174 L591.260409,174 C591.114326,174 591,173.799308 591,173.564014 L591,172.435986 C591,172.200692 591.114326,172 591.260409,172 L599.733239,172 C599.898377,172 600,172.200692 600,172.435986 Z" id="Path" fill="#757575"></path>
                <path d="M600,162.4375 L600,163.5625 C600,163.805556 599.879323,164 599.733239,164 L591.260409,164 C591.114326,164 591,163.805556 591,163.5625 L591,162.4375 C591,162.194444 591.114326,162 591.260409,162 L599.733239,162 C599.898377,162 600,162.194444 600,162.4375 Z" id="Path" fill="#757575"></path>
                <path d="M600,152.4375 L600,153.5625 C600,153.805556 599.879323,154 599.733239,154 L591.260409,154 C591.114326,154 591,153.805556 591,153.5625 L591,152.4375 C591,152.194444 591.114326,152 591.260409,152 L599.733239,152 C599.898377,152 600,152.194444 600,152.4375 Z" id="Path" fill="#757575"></path>
                <path d="M599.999747,142.612954 L599.999747,143.615969 C599.999747,143.83267 599.872636,144.006031 599.726458,143.999839 L591.24812,143.78933 C591.108297,143.78933 590.993897,143.603586 591.000253,143.393077 L591.000253,142.38387 C591.000253,142.173361 591.127364,142 591.273542,142 L599.745524,142.216701 C599.891703,142.216701 600.006103,142.396253 599.999747,142.612954 Z" id="Path" fill="#757575"></path>
                <path d="M602.877262,136.096542 L602.232903,136.841357 C602.092315,136.996527 601.899007,137.046181 601.805282,136.95308 L596.058769,131.366968 C595.959186,131.267659 595.988475,131.062835 596.129062,130.901458 L596.773422,130.16285 C596.908151,130.001473 597.101459,129.951819 597.201042,130.051128 L602.947556,135.63724 C603.047139,135.705515 602.994418,135.941373 602.877262,136.096542 Z" id="Path" fill="#757575"></path>
                <path d="M608.600429,133.886396 L607.495761,134 C607.262477,134 607.056639,133.930575 607.036055,133.785414 L606,125.422861 C606,125.2777 606.15781,125.145161 606.397955,125.119916 L607.502622,125 C607.742768,125 607.948606,125.075736 607.962329,125.214586 L608.998383,133.58345 C609.018967,133.7223 608.840574,133.835905 608.600429,133.886396 Z" id="Path" fill="#757575"></path>
                <path d="M619,125.266761 L619,133.733239 C619,133.879323 618.805556,134 618.5625,134 L617.4375,134 C617.194444,134 617,133.879323 617,133.733239 L617,125.266761 C617,125.120677 617.194444,125 617.4375,125 L618.5625,125 C618.805556,125 619,125.120677 619,125.266761 Z" id="Path" fill="#757575"></path>
                <path d="M358,112.619068 L358,100.380932 C358.001827,100.278256 358.048951,100.180439 358.131001,100.109007 C358.213052,100.037575 358.323305,99.9983818 358.4375,100.000051 L359.5625,100.000051 C359.676695,99.9983818 359.786948,100.037575 359.868999,100.109007 C359.951049,100.180439 359.998173,100.278256 360,100.380932 L360,112.619068 C359.998173,112.721744 359.951049,112.819561 359.868999,112.890993 C359.786948,112.962425 359.676695,113.001618 359.5625,112.999949 L358.4375,112.999949 C358.323305,113.001618 358.213052,112.962425 358.131001,112.890993 C358.048951,112.819561 358.001827,112.721744 358,112.619068 L358,112.619068 Z" id="Path" fill="#757575"></path>
                <path d="M443.004749,232.206136 L443.129307,231.304851 C443.155248,231.114784 443.347543,230.979512 443.559034,231.002557 L455.66611,232.396469 C455.878703,232.425291 456.025896,232.602531 455.99619,232.79393 L455.865404,233.695214 C455.854483,233.786031 455.803538,233.869129 455.723955,233.925935 C455.644373,233.982741 455.542788,234.00852 455.441905,233.997509 L443.328601,232.603597 C443.226845,232.589815 443.135419,232.540094 443.074615,232.465471 C443.013812,232.390848 442.988662,232.297496 443.004749,232.206136 L443.004749,232.206136 Z" id="Path" fill="#757575"></path>
                <path d="M442.011139,243.31844 L442.249507,242.307514 C442.271566,242.204001 442.330008,242.114517 442.411868,242.058911 C442.493728,242.003305 442.592238,241.986174 442.685546,242.011319 L453.731873,245.192195 C453.824472,245.219371 453.903494,245.286253 453.951491,245.378071 C453.999487,245.469889 454.01251,245.57909 453.987683,245.68156 L453.749315,246.692486 C453.727255,246.795999 453.668813,246.885483 453.586953,246.941089 C453.505093,246.996695 453.406583,247.013826 453.313275,246.988681 L442.266948,243.807805 C442.076162,243.748224 441.962795,243.531352 442.011139,243.31844 Z" id="Path" fill="#757575"></path>
                <path d="M685.999996,30.3852978 C685.983595,31.2842478 685.251028,32.003397 684.355215,31.9999529 L607.650784,31.9999529 C606.752638,32.0067077 606.016425,31.2866076 606,30.3852978 C606.006627,22.5106665 612.368847,16.1305422 620.214751,16.130545 C621.121588,16.1312994 622.026227,16.2200769 622.916034,16.3956376 C627.858135,5.87614271 638.657219,-0.589855513 650.227921,0.0425263703 C661.798623,0.674908254 671.834291,8.27960311 675.609061,19.2755074 C681.453316,19.6416282 686.005025,24.5082292 685.999996,30.3852978 L685.999996,30.3852978 Z" id="Path" stroke="#BFBFBF" stroke-width="2.29"></path>
                <rect id="Rectangle" fill="#BFBFBF" x="671" y="107" width="6" height="2" rx="0.3"></rect>
                <rect id="Rectangle" fill="#BFBFBF" x="661" y="107" width="6" height="2" rx="0.3"></rect>
                <rect id="Rectangle" fill="#BFBFBF" x="668" y="101" width="2" height="6" rx="0.3"></rect>
                <rect id="Rectangle" fill="#BFBFBF" x="668" y="110" width="2" height="6" rx="0.3"></rect>
                <path d="M89.3203883,291.000261 L99.6796117,291.000261 C99.761453,290.996734 99.8412114,291.02912 99.9013095,291.09028 C99.9614076,291.151441 99.9969127,291.236356 100,291.326312 L100,293.66736 C99.9935625,293.855683 99.8510439,294.003621 99.6796117,293.999932 L89.3203883,293.999932 C89.1489561,294.003621 89.0064375,293.855683 89,293.66736 L89,291.326312 C89.0030873,291.236356 89.0385924,291.151441 89.0986905,291.09028 C89.1587886,291.02912 89.238547,290.996734 89.3203883,291.000261 Z" id="Path" fill="#BFBFBF"></path>
                <path d="M72.3144552,291.000069 L82.6855448,291.000069 C82.8537017,290.996378 82.9935647,291.141408 83,291.326141 L83,293.667342 C82.9984415,293.757286 82.9644321,293.842864 82.905457,293.905241 C82.8464819,293.967619 82.7673743,294.001682 82.6855448,293.999936 L72.3144552,293.999936 C72.2326257,294.001682 72.1535181,293.967619 72.094543,293.905241 C72.0355679,293.842864 72.0015585,293.757286 72,293.667342 L72,291.326141 C72.0064353,291.141408 72.1462983,290.996378 72.3144552,291.000069 L72.3144552,291.000069 Z" id="Path" fill="#BFBFBF"></path>
                <path d="M84,290.686726 L84,280.319534 C84.0016316,280.233138 84.0372348,280.150936 84.0989739,280.09102 C84.1607129,280.031104 84.243528,279.998384 84.3291925,280.000061 L86.6708075,280.000061 C86.756472,279.998384 86.8392871,280.031104 86.9010261,280.09102 C86.9627652,280.150936 86.9983684,280.233138 87,280.319534 L87,290.686726 C86.9932631,290.86417 86.8468453,291.003479 86.6708075,290.999934 L84.3167702,290.999934 C84.1455445,290.996739 84.0065574,290.859315 84,290.686726 Z" id="Path" fill="#BFBFBF"></path>
                <path d="M84,305.680835 L84,295.313095 C84.0016034,295.22734 84.0374079,295.145847 84.0993398,295.08699 C84.1612718,295.028133 84.2441164,294.996869 84.3291925,295.000248 L86.6708075,295.000248 C86.7558836,294.996869 86.8387282,295.028133 86.9006602,295.08699 C86.9625921,295.145847 86.9983966,295.22734 87,295.313095 L87,305.680835 C86.9983684,305.767131 86.9627652,305.849238 86.9010261,305.909085 C86.8392871,305.968932 86.756472,306.001614 86.6708075,305.999939 L84.3167702,305.999939 C84.143211,305.996607 84.0033068,305.855673 84,305.680835 L84,305.680835 Z" id="Path" fill="#BFBFBF"></path>
                <path d="M431.140387,65.0001338 L436.82526,65.0001338 C436.87106,64.998031 436.915536,65.0207811 436.948485,65.0631649 C436.981434,65.1055486 437.000027,65.1639281 437,65.22491 L437,66.77509 C437.000027,66.8360719 436.981434,66.8944514 436.948485,66.9368351 C436.915536,66.9792189 436.87106,67.001969 436.82526,66.9998662 L431.128738,66.9998662 C431.055796,66.9758063 431.00357,66.890515 431.000595,66.7905918 L431.000595,65.2404118 C430.993291,65.1241878 431.054002,65.0198367 431.140387,65.0001338 Z" id="Path" fill="#BFBFBF"></path>
                <path d="M422.17341,65.0001338 L427.82659,65.0001338 C427.872041,64.998031 427.916178,65.0207811 427.948877,65.0631649 C427.981575,65.1055486 428.000027,65.1639281 428,65.22491 L428,66.77509 C428.000027,66.8360719 427.981575,66.8944514 427.948877,66.9368351 C427.916178,66.9792189 427.872041,67.001969 427.82659,66.9998662 L422.17341,66.9998662 C422.079851,66.9999359 422.003119,66.9004745 422,66.77509 L422,65.22491 C422.003119,65.0995255 422.079851,65.0000641 422.17341,65.0001338 Z" id="Path" fill="#BFBFBF"></path>
                <path d="M429.000001,64.8230814 L429.000001,59.1711528 C428.999854,59.1236819 429.023639,59.0783041 429.065646,59.0459137 C429.107653,59.0135233 429.164089,58.9970456 429.221403,59.0004365 L430.778597,59.0004365 C430.835911,58.9970456 430.892347,59.0135233 430.934354,59.0459137 C430.976361,59.0783041 431.000146,59.1236819 430.999999,59.1711528 L430.999999,64.8230814 C431.000034,64.871051 430.976475,64.9169734 430.934727,64.9503133 C430.89298,64.9836532 430.836627,65.0015488 430.778597,64.9998947 L429.221403,64.9998947 C429.163373,65.0015488 429.10702,64.9836532 429.065273,64.9503133 C429.023525,64.9169734 428.999966,64.871051 429.000001,64.8230814 L429.000001,64.8230814 Z" id="Path" fill="#BFBFBF"></path>
                <path d="M429.000001,72.8352592 L429.000001,67.1711523 C428.999854,67.1236816 429.023639,67.0783039 429.065646,67.0459136 C429.107653,67.0135233 429.164089,66.9970456 429.221403,67.0004365 L430.778597,67.0004365 C430.835911,66.9970456 430.892347,67.0135233 430.934354,67.0459136 C430.976361,67.0783039 431.000146,67.1236816 430.999999,67.1711523 L430.999999,72.8230652 C431.000034,72.8710346 430.976475,72.9169569 430.934727,72.9502967 C430.89298,72.9836365 430.836627,73.0015321 430.778597,72.999878 L429.221403,72.999878 C429.105906,73.0033934 429.007893,72.9305182 429.000001,72.8352592 L429.000001,72.8352592 Z" id="Path" fill="#BFBFBF"></path>
                <path d="M167.92276,86.9999413 L57.815818,86.9999413 C57.0717346,87.0047521 56.3563839,86.7136966 55.8279634,86.1911407 C55.299543,85.6685847 55.0015915,84.957584 55,84.2153739 L55,78.3930967 C55,69.7195631 58.454309,61.4012749 64.6030185,55.2681604 C70.751728,49.135046 79.0911677,45.6894982 87.786756,45.6894982 C88.3526658,45.6729032 88.9189237,45.7071959 89.4786638,45.7919606 C105.007706,23.9448174 134.786022,17.7142711 157.807569,31.4954373 C164.995044,21.8400489 177.140772,17.2140945 188.950757,19.6339036 C205.763326,23.1291934 216.560572,39.5469601 213.078571,56.3214827 L213.646568,56.3214827 C233.453975,57.3822702 232.432787,86.9698053 212.613296,86.9698053 L167.92276,86.9999413 Z" id="Path" stroke="#BFBFBF" stroke-width="3"></path>
                <polygon id="Path" fill="#757575" points="663 314.443896 12 314 14.8121993 319 661.358545 319"></polygon>
                <path d="M625.128976,138.09851 L625.772905,138.837144 C625.907545,138.998526 626.100724,139.048183 626.20024,138.94887 L631.942918,133.362564 C632.042435,133.269459 632.007311,133.064627 631.872672,132.903245 L631.228742,132.164611 C631.088249,132.003229 630.900924,131.953573 630.801407,132.046678 L625.058729,137.632985 C624.959213,137.732297 624.988483,137.937128 625.128976,138.09851 Z" id="Path" fill="#757575"></path>
                <path d="M444.002068,217.549608 L444.083062,218.617224 C444.09966,218.841397 444.281957,219.010852 444.494262,218.999458 L456.655824,217.89889 C456.865431,217.871366 457.016863,217.673325 456.998491,217.450754 L456.911267,216.383137 C456.904866,216.274688 456.857891,216.173402 456.780727,216.101673 C456.703562,216.029945 456.602565,215.993683 456.500066,216.000904 L444.344735,217.101472 C444.133398,217.125672 443.980262,217.325943 444.002068,217.549608 L444.002068,217.549608 Z" id="Path" fill="#757575"></path>
                <path d="M443.015689,202.801835 L443.228803,203.71249 C443.248492,203.805276 443.30785,203.887062 443.393732,203.939737 C443.479615,203.992412 443.584937,204.011629 443.686373,203.993132 L455.696005,201.621992 C455.905416,201.579256 456.037294,201.389529 455.990605,201.198165 L455.771222,200.28751 C455.751534,200.194724 455.692176,200.112938 455.606293,200.060263 C455.52041,200.007588 455.415089,199.988371 455.313653,200.006868 L443.30402,202.360826 C443.199495,202.380817 443.108882,202.43984 443.054114,202.523609 C442.999345,202.607379 442.985413,202.708259 443.015689,202.801835 L443.015689,202.801835 Z" id="Path" fill="#757575"></path>
                <path d="M440.0237,192.737287 L440.337637,193.726112 C440.368656,193.827556 440.435553,193.911262 440.523439,193.958602 C440.611326,194.005941 440.712909,194.012985 440.805581,193.978165 L451.757843,189.777276 C451.849645,189.742283 451.924645,189.668393 451.96589,189.572309 C452.007134,189.476224 452.011142,189.366056 451.977006,189.266706 L451.657146,188.277882 C451.594946,188.067329 451.388131,187.951609 451.195125,188.019365 L440.23694,192.226718 C440.146217,192.263012 440.072598,192.337442 440.032529,192.433381 C439.99246,192.529319 439.98928,192.638772 440.0237,192.737287 L440.0237,192.737287 Z" id="Path" fill="#757575"></path>
                <circle id="Oval" fill="#757575" cx="395" cy="206" r="5"></circle>
                <circle id="Oval-2" fill="#757575" cx="323" cy="207" r="5"></circle>
                <rect id="Rectangle" fill="#757575" x="344" y="253" width="30" height="3" rx="1.36"></rect>
                <path d="M312,176 C318.649902,185.250623 325.724642,186.423989 333,183.739471" id="Path" stroke="#757575" stroke-width="4.59"></path>
                <path d="M384,170 C393.240236,162.92242 399.742624,161.343667 405,162.219428" id="Path" stroke="#757575" stroke-width="4.59"></path>
                <path d="M439.028229,255.139641 L439.393401,254.241544 C439.426931,254.148369 439.496853,254.072805 439.587144,254.032169 C439.677434,253.991532 439.780354,253.989306 439.872316,254.026001 L450.773622,258.372789 C450.961688,258.452534 451.049977,258.669276 450.971175,258.857761 L450.611988,259.761845 C450.536808,259.951315 450.324719,260.046769 450.133073,259.977388 L439.231767,255.630601 C439.040587,255.55066 438.949699,255.331429 439.028229,255.139641 Z" id="Path" fill="#757575"></path>
                <path d="M434.051891,265.013979 L434.539566,264.18765 C434.641496,264.013794 434.876553,263.949137 435.064754,264.043186 L445.806099,269.498118 C445.990428,269.598563 446.054277,269.816647 445.9499,269.989293 L445.462225,270.809844 C445.360177,270.983229 445.127221,271.049872 444.937037,270.960086 L434.195693,265.499376 C434.106232,265.453286 434.040589,265.375878 434.013541,265.284578 C433.986493,265.193278 434.000313,265.095761 434.051891,265.013979 Z" id="Path" fill="#757575"></path>
                <path d="M428.077195,273.903645 L428.685152,273.151189 C428.741618,273.073914 428.828947,273.021268 428.927364,273.005173 C429.025781,272.989078 429.126962,273.010894 429.207994,273.065683 L438.85019,279.604069 C438.930142,279.66067 438.982775,279.744785 438.996463,279.837838 C439.010152,279.930891 438.98377,280.025225 438.923145,280.100006 L438.351666,280.846762 C438.231594,281.007625 437.995998,281.048251 437.822743,280.937969 L428.156229,274.399582 C428.073931,274.344821 428.018988,274.260978 428.004074,274.167395 C427.98916,274.073812 428.015564,273.978571 428.077195,273.903645 Z" id="Path" fill="#757575"></path>
                <path d="M422.124832,281.785359 L422.780665,281.099599 C422.925811,280.9668 423.154223,280.9668 423.299369,281.099599 L431.890778,288.70011 C431.960684,288.766629 432,288.857139 432,288.951555 C432,289.045971 431.960684,289.136482 431.890778,289.203001 L431.234945,289.883047 C431.09936,290.027071 430.868148,290.039808 430.716241,289.91162 L422.124832,282.311109 C422.045525,282.244905 422,282.149037 422,282.048234 C422,281.947431 422.045525,281.851563 422.124832,281.785359 Z" id="Path" fill="#757575"></path>
                <path d="M414.137966,288.697708 L414.866991,288.087804 C415.021535,287.958314 415.25339,287.973806 415.38857,288.122656 L422.9159,296.794914 C423.044452,296.947521 423.023278,297.17319 422.868484,297.300263 L422.133532,297.910167 C421.982518,298.040462 421.752668,298.027516 421.61788,297.881124 L414.084623,289.208866 C414.021681,289.134491 413.991877,289.038448 414.001908,288.942324 C414.011939,288.846199 414.060965,288.758057 414.137966,288.697708 L414.137966,288.697708 Z" id="Path" fill="#757575"></path>
                <path d="M406.171939,294.599826 L406.977489,294.064288 C407.145666,293.94977 407.37503,293.992324 407.490654,294.159495 L413.941019,303.894388 C413.994481,303.977117 414.012578,304.077718 413.991287,304.17382 C413.969996,304.269922 413.911082,304.353556 413.827645,304.406124 L413.022096,304.935712 C412.853918,305.05023 412.624554,305.007676 412.508931,304.840505 L406.058565,295.105612 C406.005389,295.023812 405.987442,294.92412 406.008768,294.828983 C406.030093,294.733846 406.088897,294.651262 406.171939,294.599826 Z" id="Path" fill="#757575"></path>
                <path d="M397.220483,299.487174 L398.107513,299.044179 C398.195776,298.996819 398.29925,298.987085 398.394714,299.017162 C398.490178,299.047239 398.569638,299.114607 398.615262,299.204149 L403.961912,310.002151 C404.006003,310.093488 404.012071,310.198735 403.978773,310.294585 C403.945475,310.390436 403.875559,310.46898 403.784506,310.512826 L402.891358,310.955821 C402.803095,311.003181 402.699622,311.012915 402.604157,310.982838 C402.508693,310.952761 402.429234,310.885393 402.38361,310.795851 L397.03696,299.997849 C396.993275,299.905752 396.988098,299.799892 397.022585,299.703928 C397.057072,299.607964 397.128348,299.529896 397.220483,299.487174 L397.220483,299.487174 Z" id="Path" fill="#757575"></path>
                <path d="M387.27358,304.343766 L388.262068,304.023937 C388.361447,303.989327 388.471757,303.992351 388.568702,304.032343 C388.665647,304.072336 388.741274,304.146017 388.778925,304.237157 L392.978388,315.194258 C393.013014,315.28612 393.005806,315.386897 392.958393,315.473828 C392.91098,315.560759 392.82736,315.626511 392.72642,315.656234 L391.737932,315.976063 C391.638553,316.010673 391.528243,316.007649 391.431298,315.967657 C391.334353,315.927664 391.258726,315.853983 391.221075,315.762843 L387.021612,304.805742 C386.986986,304.71388 386.994194,304.613103 387.041607,304.526172 C387.08902,304.439241 387.17264,304.373489 387.27358,304.343766 Z" id="Path" fill="#757575"></path>
                <path d="M323.959356,301.037435 L324.786877,301.437732 C324.872261,301.475214 324.940039,301.548564 324.974792,301.641095 C325.009545,301.733626 325.008319,301.837471 324.971391,301.929006 L320.498308,312.78555 C320.415288,312.969876 320.212897,313.050196 320.039817,312.967503 L319.206706,312.561141 C319.033223,312.478038 318.953502,312.259145 319.027782,312.069867 L323.500865,301.213323 C323.53958,301.12347 323.609932,301.05424 323.696135,301.021171 C323.782339,300.988101 323.877173,300.993961 323.959356,301.037435 Z" id="Path" fill="#757575"></path>
                <path d="M314.936168,296.057264 L315.80632,296.547359 C315.896165,296.593718 315.961725,296.672341 315.987744,296.764931 C316.013762,296.85752 315.99797,296.956001 315.944042,297.037455 L309.596313,306.827692 C309.543229,306.909854 309.456812,306.968571 309.356642,306.990538 C309.256472,307.012505 309.15103,306.995862 309.064206,306.944381 L308.194054,306.454286 C308.103804,306.406772 308.038155,306.327106 308.012183,306.233582 C307.986211,306.140058 308.002147,306.040711 308.056332,305.958356 L314.404061,296.168119 C314.458173,296.086922 314.545055,296.029424 314.645143,296.008573 C314.745231,295.987721 314.850111,296.005269 314.936168,296.057264 L314.936168,296.057264 Z" id="Path" fill="#757575"></path>
                <path d="M307.064148,290.088897 L307.846154,290.711536 C307.928181,290.771145 307.982494,290.862116 307.996453,290.963278 C308.010413,291.064439 307.982801,291.166969 307.920044,291.247006 L300.475598,300.854335 C300.344534,301.020865 300.104905,301.048717 299.939893,300.916599 L299.15173,300.293959 C299.070753,300.232136 299.017446,300.140259 299.003582,300.038621 C298.989718,299.936982 299.016438,299.833944 299.07784,299.752263 L306.522286,290.144934 C306.58626,290.064044 306.679696,290.012543 306.781595,290.002005 C306.883493,289.991467 306.985306,290.022776 307.064148,290.088897 L307.064148,290.088897 Z" id="Path" fill="#757575"></path>
                <path d="M299.187354,283.119353 L299.889657,283.821672 C300.036781,283.97244 300.036781,284.213045 299.889657,284.363812 L291.357289,292.890208 C291.208619,293.036597 290.969991,293.036597 290.821321,292.890208 L290.112857,292.181729 C290.040624,292.110018 290,292.012443 290,291.910658 C290,291.808873 290.040624,291.711298 290.112857,291.639588 L298.651386,283.100871 C298.805057,282.959484 299.043786,282.967716 299.187354,283.119353 L299.187354,283.119353 Z" id="Path" fill="#757575"></path>
                <path d="M292.288917,275.147849 L292.911584,275.935998 C292.977375,276.013822 293.008538,276.114652 292.997982,276.21555 C292.987427,276.316448 292.936052,276.408834 292.855544,276.471693 L283.247787,283.922161 C283.166102,283.983562 283.063059,284.010282 282.961416,283.996418 C282.859773,283.982554 282.767893,283.929248 282.706067,283.848272 L282.083399,283.060124 C281.953269,282.895737 281.978035,282.658991 282.13944,282.524429 L291.747196,275.080117 C291.828111,275.018049 291.930648,274.990314 292.032245,275.003017 C292.133841,275.015719 292.226171,275.067818 292.288917,275.147849 Z" id="Path" fill="#757575"></path>
                <path d="M286.454714,267.193738 L286.944911,268.064151 C287.049868,268.244247 287.000462,268.481415 286.834034,268.596417 L277.041759,274.946046 C276.958988,274.998504 276.860165,275.01346 276.767102,274.987614 C276.674039,274.961767 276.594387,274.897243 276.545727,274.808283 L276.055529,273.93787 C275.949992,273.755851 275.999229,273.516709 276.166407,273.399342 L285.964517,267.055975 C286.045987,267.002031 286.144489,266.986234 286.237098,267.01226 C286.329706,267.038287 286.408346,267.103866 286.454714,267.193738 Z" id="Path" fill="#757575"></path>
                <path d="M281.564381,258.204395 L281.965527,259.033247 C282.051872,259.20649 281.97048,259.411477 281.783188,259.492476 L270.934012,263.972757 C270.740983,264.046891 270.519105,263.964616 270.435619,263.787945 L270.034473,262.959093 C269.948128,262.785851 270.02952,262.580863 270.216812,262.499864 L281.096378,258.019584 C281.280787,257.960074 281.483971,258.04031 281.564381,258.204395 L281.564381,258.204395 Z" id="Path" fill="#757575"></path>
                <path d="M277.701046,248.243576 L277.982434,249.154455 C278.043893,249.345939 277.938928,249.551123 277.747944,249.612832 L266.75621,252.980146 C266.664494,253.011807 266.563958,253.005402 266.476978,252.962357 C266.389998,252.919312 266.323791,252.843199 266.293092,252.750957 L266.017566,251.840078 C265.956107,251.648594 266.061072,251.44341 266.252056,251.381701 L277.24379,248.020264 C277.333945,247.988514 277.433027,247.994256 277.518932,248.03621 C277.604837,248.078164 277.670418,248.152838 277.701046,248.243576 Z" id="Path" fill="#757575"></path>
                <path d="M275.818976,237.341718 L275.993807,238.378127 C276.031681,238.596339 275.891932,238.805107 275.681609,238.844511 L263.618306,240.995061 C263.516405,241.011792 263.412282,240.985634 263.329048,240.922394 C263.245815,240.859153 263.190357,240.764062 263.174985,240.658228 L263.006399,239.621818 C262.968246,239.405709 263.104567,239.197906 263.312352,239.155434 L275.3819,237.004884 C275.483087,236.988227 275.586476,237.014563 275.66872,237.077944 C275.750964,237.141325 275.805126,237.236407 275.818976,237.341718 Z" id="Path" fill="#757575"></path>
                <path d="M274.955909,227.324351 L274.999488,228.197104 C275.010251,228.380685 274.850173,228.538317 274.638404,228.552669 L262.442506,228.99982 C262.340122,229.002725 262.240603,228.97029 262.165869,228.909661 C262.091136,228.849032 262.047319,228.765181 262.044069,228.676579 L262.00049,227.803826 C261.989852,227.618291 262.15355,227.459826 262.367799,227.44826 L274.545021,227.001109 C274.64994,226.993634 274.753738,227.024183 274.831635,227.085464 C274.909532,227.146745 274.954538,227.233258 274.955909,227.324351 Z" id="Path" fill="#757575"></path>
                <path d="M274.997935,215.552808 L274.910836,216.622629 C274.89427,216.846341 274.711147,217.014216 274.500224,216.999048 L262.349843,215.896207 C262.138035,215.871902 261.983303,215.672463 262.001445,215.447146 L262.088545,214.383929 C262.094936,214.275255 262.141844,214.17376 262.218898,214.101883 C262.295952,214.030007 262.396804,213.99367 262.499157,214.000906 L274.655759,215.103747 C274.866793,215.127997 275.01971,215.328681 274.997935,215.552808 Z" id="Path" fill="#757575"></path>
                <path d="M275.996877,204.795214 L275.799971,205.709513 C275.78178,205.80326 275.726937,205.885893 275.647586,205.939113 C275.568235,205.992333 275.470924,206.011749 275.377203,205.993061 L264.280987,203.637873 C264.086703,203.591979 263.965411,203.398583 264.008794,203.203871 L264.205699,202.289572 C264.246414,202.096183 264.433923,201.970422 264.628467,202.006023 L275.730475,204.395931 C275.906782,204.443631 276.020621,204.614252 275.996877,204.795214 L275.996877,204.795214 Z" id="Path" fill="#757575"></path>
                <path d="M278.976786,194.737639 L278.656938,195.726357 C278.627213,195.82732 278.561457,195.910959 278.474521,195.958383 C278.387585,196.005808 278.286802,196.013017 278.194935,195.978383 L267.237171,191.777947 C267.146026,191.740288 267.072341,191.664643 267.032345,191.567676 C266.99235,191.470708 266.989326,191.360372 267.023939,191.260971 L267.337864,190.272253 C267.405118,190.063441 267.612954,189.9515 267.80579,190.020226 L278.757631,194.220662 C278.849855,194.257041 278.924911,194.332153 278.966077,194.429262 C279.007244,194.526371 279.0111,194.63741 278.976786,194.737639 L278.976786,194.737639 Z" id="Path" fill="#757575"></path>
                <path d="M283.954834,185.894052 L283.511993,186.781368 C283.420533,186.970737 283.193512,187.052377 283.001496,186.96495 L272.207244,181.61658 C272.020402,181.518844 271.946565,181.290294 272.041178,181.102549 L272.49017,180.215233 C272.532756,180.124575 272.610145,180.054726 272.70497,180.02136 C272.799794,179.987995 272.904113,179.993907 272.994517,180.03777 L283.788769,185.386141 C283.880605,185.429363 283.950471,185.508342 283.981898,185.604463 C284.013326,185.700584 284.003535,185.805344 283.954834,185.894052 L283.954834,185.894052 Z" id="Path" fill="#757575"></path>
                <path d="M288.934412,176.023699 L288.398937,176.82827 C288.347508,176.911211 288.264933,176.969944 288.169808,176.991243 C288.074682,177.012542 287.975002,176.994618 287.893212,176.941506 L278.159476,170.493018 C277.992325,170.377535 277.949776,170.14845 278.06428,169.980477 L278.593805,169.169946 C278.70532,168.999213 278.932537,168.948928 279.105481,169.05671 L288.833267,175.499238 C288.916597,175.554955 288.974191,175.64177 288.993194,175.740307 C289.012197,175.838844 288.991028,175.940901 288.934412,176.023699 Z" id="Path" fill="#757575"></path>
                <path d="M294.912225,168.133427 L294.296713,168.862489 C294.237435,168.939126 294.15031,168.988032 294.055159,168.998079 C293.960008,169.008127 293.864921,168.978463 293.791529,168.915835 L285.122108,161.382191 C284.974018,161.249088 284.95848,161.019107 285.087267,160.866513 L285.702779,160.131523 C285.82981,159.976721 286.055406,159.955545 286.207963,160.084104 L294.877384,167.611821 C295.026185,167.747008 295.041672,167.978874 294.912225,168.133427 Z" id="Path" fill="#757575"></path>
                <path d="M301.877019,161.235391 L301.191041,161.891267 C301.125483,161.960823 301.035887,162 300.942373,162 C300.848859,162 300.759264,161.960823 300.693706,161.891267 L293.090776,153.287372 C293.027708,153.215068 292.995198,153.119328 293.000575,153.021739 C293.005952,152.92415 293.048764,152.832925 293.119358,152.768634 L293.799621,152.106796 C293.939518,151.964401 294.162775,151.964401 294.302672,152.106796 L301.899885,160.692803 C301.967925,160.766862 302.003971,160.866722 301.999652,160.969196 C301.995334,161.07167 301.951027,161.167845 301.877019,161.235391 L301.877019,161.235391 Z" id="Path" fill="#757575"></path>
                <path d="M309.848745,154.349935 L309.09596,154.92767 C308.937843,155.049185 308.717706,155.014108 308.599806,154.848611 L302.064264,145.179149 C302.009729,145.096371 301.988674,144.993696 302.005834,144.894201 C302.022993,144.794705 302.076926,144.706736 302.155511,144.650065 L302.902593,144.07233 C303.06071,143.950815 303.280847,143.985892 303.398747,144.151389 L309.934289,153.826932 C309.989101,153.90799 310.010927,154.009201 309.994825,154.107648 C309.978722,154.206096 309.926054,154.293451 309.848745,154.349935 Z" id="Path" fill="#757575"></path>
                <path d="M318.805881,149.460434 L317.985644,149.948109 C317.903895,149.999687 317.806414,150.013507 317.715149,149.986459 C317.623885,149.959411 317.546506,149.893768 317.500434,149.804307 L312.041819,139.062963 C311.997112,138.97182 311.987824,138.865144 312.016014,138.766565 C312.044204,138.667987 312.107544,138.585643 312.192003,138.537775 L313.01224,138.0501 C313.18482,137.945723 313.40282,138.009572 313.503226,138.193901 L318.956065,148.935246 C319.002405,149.026041 319.01258,149.133349 318.984244,149.232439 C318.955908,149.331529 318.891506,149.413852 318.805881,149.460434 L318.805881,149.460434 Z" id="Path" fill="#757575"></path>
                <path d="M328.760186,144.611814 L327.855831,144.971162 C327.667289,145.05 327.450482,144.96167 327.370713,144.77352 L323.022618,133.867316 C322.953217,133.675584 323.048699,133.463401 323.238226,133.388186 L324.142582,133.028838 C324.331124,132.95 324.547931,133.03833 324.6277,133.22648 L328.975794,144.132684 C329.010793,144.224808 329.007735,144.327067 328.967294,144.416936 C328.926853,144.506804 328.852347,144.576911 328.760186,144.611814 L328.760186,144.611814 Z" id="Path" fill="#757575"></path>
                <path d="M338.699512,140.748659 L337.680722,140.987187 C337.468953,141.03933 337.250197,140.927658 337.190672,140.737023 L334.01179,129.683285 C333.958955,129.49058 334.088633,129.295576 334.301952,129.246953 L335.314293,129.014243 C335.416914,128.987423 335.527163,128.99878 335.620442,129.045779 C335.713722,129.092778 335.78227,129.17151 335.810792,129.264407 L338.989673,140.318145 C339.038485,140.508919 338.909704,140.699991 338.699512,140.748659 L338.699512,140.748659 Z" id="Path" fill="#757575"></path>
                <path d="M348.690664,139.865556 L347.790679,139.996291 C347.699481,140.01047 347.606965,139.983648 347.533552,139.921744 C347.460138,139.85984 347.411863,139.767945 347.39938,139.666341 L346.001887,127.564002 C345.982188,127.35145 346.118893,127.160449 346.309336,127.134444 L347.209321,127.003709 C347.300519,126.98953 347.393035,127.016352 347.466448,127.078256 C347.539862,127.14016 347.588137,127.232055 347.60062,127.333659 L348.998113,139.435998 C349.017812,139.64855 348.881107,139.839551 348.690664,139.865556 L348.690664,139.865556 Z" id="Path" fill="#757575"></path>
                <path d="M361,126.380932 L361,138.619068 C360.998179,138.721744 360.951219,138.819561 360.869452,138.890993 C360.787686,138.962425 360.677813,139.001618 360.564014,138.999949 L359.435986,138.999949 C359.322187,139.001618 359.212314,138.962425 359.130548,138.890993 C359.048781,138.819561 359.001821,138.721744 359,138.619068 L359,126.380932 C359.001821,126.278256 359.048781,126.180439 359.130548,126.109007 C359.212314,126.037575 359.322187,125.998382 359.435986,126.000051 L360.564014,126.000051 C360.677813,125.998382 360.787686,126.037575 360.869452,126.109007 C360.951219,126.180439 360.998179,126.278256 361,126.380932 L361,126.380932 Z" id="Path" fill="#757575"></path>
                <path d="M436.040802,185.894088 L436.489832,186.781649 C436.578796,186.970271 436.803942,187.05224 436.994221,186.965283 L447.795539,181.61543 C447.885478,181.568566 447.952928,181.487949 447.982947,181.391438 C448.012966,181.294927 448.003076,181.190488 447.955467,181.101257 L447.512589,180.213696 C447.418886,180.026603 447.192448,179.947872 447.002048,180.036183 L436.206881,185.386036 C436.020823,185.481359 435.94671,185.708076 436.040802,185.894088 L436.040802,185.894088 Z" id="Path" fill="#757575"></path>
                <path d="M431.073632,176.02328 L431.60361,176.827854 C431.656217,176.911189 431.739913,176.970033 431.836085,176.991298 C431.932258,177.012563 432.032933,176.994488 432.115723,176.941091 L441.833967,170.492575 C441.916598,170.439109 441.974022,170.354381 441.993103,170.257773 C442.012184,170.161164 441.991289,170.060941 441.935199,169.980031 L441.399266,169.169497 C441.289905,168.999528 441.06437,168.949072 440.893108,169.05626 L431.151044,175.498816 C430.985265,175.622429 430.950646,175.856972 431.073632,176.02328 L431.073632,176.02328 Z" id="Path" fill="#757575"></path>
                <path d="M425.090586,168.133427 L425.672999,168.862489 C425.732455,168.939126 425.819841,168.988032 425.915277,168.998079 C426.010713,169.008127 426.106086,168.978463 426.179698,168.915835 L434.875115,161.382191 C434.947868,161.319115 434.992582,161.228868 434.999157,161.131832 C435.005733,161.034796 434.973616,160.939156 434.91006,160.866513 L434.327647,160.131523 C434.200235,159.976721 433.973963,159.955545 433.820949,160.084104 L425.119707,167.611821 C424.972213,167.748687 424.959274,167.980439 425.090586,168.133427 Z" id="Path" fill="#757575"></path>
                <path d="M418.149736,161.235844 L418.903921,161.890906 C418.977691,161.96073 419.07807,162 419.182779,162 C419.287488,162 419.387867,161.96073 419.461637,161.890906 L427.884425,153.297685 C427.958358,153.229391 428,153.136055 428,153.038638 C428,152.94122 427.958358,152.847885 427.884425,152.77959 L427.098552,152.106663 C426.943452,151.964446 426.695935,151.964446 426.540835,152.106663 L418.118048,160.682019 C418.037304,160.756298 417.994501,160.859644 418.000567,160.965667 C418.006634,161.071691 418.060983,161.170128 418.149736,161.235844 Z" id="Path" fill="#757575"></path>
                <path d="M410.152945,154.349935 L410.900442,154.92767 C411.058648,155.049185 411.278906,155.014108 411.396872,154.848611 L417.936043,145.179149 C418.047613,145.007409 418.009542,144.77207 417.850452,144.650065 L417.097249,144.07233 C416.939044,143.950815 416.718785,143.985892 416.60082,144.151389 L410.061648,153.826932 C409.951833,153.998334 409.992639,154.232095 410.152945,154.349935 L410.152945,154.349935 Z" id="Path" fill="#757575"></path>
                <path d="M401.178656,149.451879 L401.998506,149.939208 C402.082535,149.997215 402.185108,150.014683 402.281539,149.987409 C402.377971,149.960136 402.459528,149.890589 402.506582,149.795509 L407.95685,139.061776 C408.050819,138.873709 407.986217,138.638818 407.812511,138.53696 L406.986887,138.049631 C406.816118,137.945914 406.600029,138.009941 406.501906,138.19333 L401.045864,148.927063 C400.95002,149.111859 401.009187,149.345696 401.178656,149.451879 L401.178656,149.451879 Z" id="Path" fill="#757575"></path>
                <path d="M391.238155,144.611872 L392.142239,144.971166 C392.330724,145.049992 392.547466,144.961676 392.627211,144.773554 L396.973999,133.868991 C397.010694,133.777001 397.008468,133.674051 396.967831,133.583733 C396.927195,133.493415 396.851631,133.423473 396.758456,133.389933 L395.860359,133.030639 C395.769998,132.991091 395.667486,132.989777 395.576141,133.026997 C395.484797,133.064217 395.412388,133.136806 395.375387,133.228251 L391.022612,144.132814 C390.953231,144.324518 391.048685,144.536669 391.238155,144.611872 L391.238155,144.611872 Z" id="Path" fill="#757575"></path>
                <path d="M381.30632,140.747398 L382.317763,140.985903 C382.419457,141.012587 382.528774,141.001082 382.620944,140.953993 C382.713115,140.906904 382.780337,140.828218 382.80738,140.735763 L385.989884,129.683076 C386.038551,129.489132 385.907049,129.29553 385.693538,129.246785 L384.682094,129.014097 C384.5804,128.987413 384.471084,128.998918 384.378913,129.046007 C384.286742,129.093096 384.21952,129.171782 384.192478,129.264237 L381.009973,140.316924 C380.96162,140.50947 381.093703,140.701335 381.30632,140.747398 L381.30632,140.747398 Z" id="Path" fill="#757575"></path>
                <path d="M371.305429,139.865457 L372.206498,139.996192 C372.397852,140.025885 372.57505,139.878751 372.603864,139.666243 L373.997443,127.563998 C374.020483,127.352592 373.885243,127.160373 373.695221,127.134443 L372.794152,127.003709 C372.702844,126.98953 372.610217,127.016352 372.536716,127.078255 C372.463214,127.140158 372.41488,127.232053 372.402383,127.333657 L371.003207,139.435902 C370.990573,139.537733 371.015591,139.640911 371.072547,139.721864 C371.129503,139.802816 371.213529,139.854626 371.305429,139.865457 Z" id="Path" fill="#757575"></path>
            </g>
        </g>
    </g>
</svg>