<?xml version="1.0" encoding="UTF-8"?>
<svg width="25px" height="24px" viewBox="0 0 25 24" version="1.1" xmlns="http://www.w3.org/2000/svg" xmlns:xlink="http://www.w3.org/1999/xlink">
    <!-- Generator: Sketch 52.4 (67378) - http://www.bohemiancoding.com/sketch -->
    <title>Group 2</title>
    <desc>Created with Sketch.</desc>
    <g id="Page-1" stroke="none" stroke-width="1" fill="none" fill-rule="evenodd">
        <g id="add-survey---step-3" transform="translate(-843.000000, -250.000000)">
            <g id="Group-2" transform="translate(843.000000, 250.000000)">
                <rect id="Rectangle" fill="#3666FF" x="0.5" y="0" width="24" height="24" rx="5"></rect>
                <g id="radio-on-button" transform="translate(4.500000, 4.000000)" fill="#FFFFFF" fill-rule="nonzero">
                    <path d="M7.56912963,3.78456481 C5.44977333,3.78456481 3.78456481,5.44977333 3.78456481,7.56912963 C3.78456481,9.68848593 5.44977333,11.3536944 7.56912963,11.3536944 C9.68848593,11.3536944 11.3536944,9.68848593 11.3536944,7.56912963 C11.3536944,5.44977333 9.68848593,3.78456481 7.56912963,3.78456481 Z M7.56912963,0 C3.40610833,0 0,3.40610833 0,7.56912963 C0,11.7321509 3.40610833,15.1382593 7.56912963,15.1382593 C11.7321509,15.1382593 15.1382593,11.7321509 15.1382593,7.56912963 C15.1382593,3.40610833 11.7321509,0 7.56912963,0 Z M7.56912963,13.6244333 C4.23871259,13.6244333 1.51382593,10.8995467 1.51382593,7.56912963 C1.51382593,4.23871259 4.23871259,1.51382593 7.56912963,1.51382593 C10.8995467,1.51382593 13.6244333,4.23871259 13.6244333,7.56912963 C13.6244333,10.8995467 10.8995467,13.6244333 7.56912963,13.6244333 Z" id="Shape"></path>
                </g>
            </g>
        </g>
    </g>
</svg>