<?xml version="1.0" encoding="UTF-8"?>
<svg width="160px" height="160px" viewBox="0 0 160 160" version="1.1" xmlns="http://www.w3.org/2000/svg" xmlns:xlink="http://www.w3.org/1999/xlink">
    <!-- Generator: Sketch 52.4 (67378) - http://www.bohemiancoding.com/sketch -->
    <title>363</title>
    <desc>Created with Sketch.</desc>
    <defs>
        <linearGradient x1="50%" y1="0%" x2="50%" y2="100%" id="linearGradient-1">
            <stop stop-color="#05CC47" offset="0%"></stop>
            <stop stop-color="#00B574" offset="100%"></stop>
        </linearGradient>
    </defs>
    <g id="panel" stroke="none" stroke-width="1" fill="none" fill-rule="evenodd">
        <g id="add-survey---step-7" transform="translate(-640.000000, -165.000000)">
            <g id="363" transform="translate(640.000000, 165.000000)">
                <circle id="Oval" fill="url(#linearGradient-1)" opacity="0.104523" cx="80" cy="80" r="80"></circle>
                <circle id="Oval" fill="url(#linearGradient-1)" cx="80" cy="80" r="60"></circle>
                <path d="M57.6,82 C57.2,81.6 57,81 57,80.6 C57,80.2 57.2,79.6 57.6,79.2 L60.4,76.4 C61.2,75.6 62.4,75.6 63.2,76.4 L63.4,76.6 L74.4,88.4 C74.8,88.8 75.4,88.8 75.8,88.4 L102.6,60.6 L102.8,60.6 C103.6,59.8 104.8,59.8 105.6,60.6 L108.4,63.4 C109.2,64.2 109.2,65.4 108.4,66.2 L76.4,99.4 C76,99.8 75.6,100 75,100 C74.4,100 74,99.8 73.6,99.4 L58,82.6 L57.6,82 Z" id="Path" fill="#FFFFFF"></path>
            </g>
        </g>
    </g>
</svg>